<?xml version="1.0" encoding="UTF-8"?><svg xmlns="http://www.w3.org/2000/svg" viewBox="0 0 1109.12 707.77"><defs><style>.cls-1{fill:none;}.cls-1,.cls-2,.cls-3,.cls-4{stroke-miterlimit:10;stroke-width:3px;}.cls-1,.cls-2,.cls-4{stroke:#fdfb00;}.cls-5,.cls-3{fill:#fff;}.cls-6{fill:#8b43ee;}.cls-3{stroke:#fff;}.cls-4{fill:#fdfb00;}</style></defs><g id="_Слой_1"><rect class="cls-6" width="1109.12" height="707.77" rx="35" ry="35"/></g><g id="_Слой_2"><path class="cls-1" d="M804.91,497.25c-2.13-6.58-6.31-15.88-15.08-22.88-9.83-7.84-21.2-9.42-62.94-9.79-11.9-.11-26.72-.12-43.82,.16"/><path class="cls-2" d="M683.07,540.95h89.49"/><path class="cls-1" d="M806.83,587.83c-2.09,6.73-6.19,16.25-14.81,23.41-9.65,8.02-20.82,9.64-61.81,10.02-11.69,.11-26.24,.12-43.03-.16"/><path class="cls-1" d="M301.06,503.28c1.88-7.79,5.58-18.81,13.34-27.09,8.7-9.28,18.77-11.15,55.71-11.59,10.53-.12,23.65-.14,38.79,.18"/><path class="cls-1" d="M301.06,582.57c1.88,7.79,5.58,18.81,13.34,27.09,8.7,9.28,18.77,11.15,55.71,11.59,10.53,.12,23.65,.14,38.79-.18"/><path class="cls-2" d="M317.42,542.85h91.48"/><path class="cls-1" d="M189.73,340.8v146.51"/><path class="cls-2" d="M329.84,297.86h90.92"/><path class="cls-2" d="M693.23,297.86h88.94"/><path class="cls-4" d="M917.3,141.72v110.22"/><path class="cls-2" d="M679.4,103.76h98.54"/><path class="cls-4" d="M314.31,101.06h99.11"/><path class="cls-5" d="M52.7,103.76c0,24,19.45,43.45,43.45,43.45h187.17c24,0,43.45-19.45,43.45-43.45s-19.45-43.45-43.45-43.45H96.15c-24,0-43.45,19.45-43.45,43.45,0,0,0-24,0,0Z"/><g><path d="M81.95,110.64c-1.02-.61-1.81-1.48-2.36-2.62-.55-1.14-.83-2.49-.83-4.04s.28-2.88,.83-4.02c.55-1.14,1.34-2.02,2.36-2.62,1.02-.61,2.23-.91,3.63-.91,.94,0,1.82,.15,2.66,.45,.83,.3,1.56,.73,2.17,1.29,.22,.21,.34,.46,.34,.73,0,.2-.06,.37-.17,.51-.11,.15-.25,.22-.4,.22-.17,0-.37-.08-.61-.23-.71-.56-1.36-.95-1.94-1.18-.58-.22-1.25-.34-2.01-.34-1.62,0-2.87,.53-3.75,1.59s-1.31,2.56-1.31,4.5,.44,3.47,1.31,4.53c.88,1.06,2.12,1.59,3.75,1.59,.74,0,1.41-.11,2-.34,.59-.22,1.24-.62,1.95-1.18,.24-.15,.44-.23,.61-.23,.15,0,.29,.07,.4,.21,.11,.14,.17,.31,.17,.52,0,.28-.11,.52-.34,.73-.62,.56-1.34,.99-2.17,1.29-.83,.3-1.72,.45-2.66,.45-1.4,0-2.61-.3-3.63-.91Z"/><path d="M99.21,101.66c0,.22-.06,.4-.19,.54-.13,.13-.34,.21-.65,.24l-.63,.06c-.94,.08-1.63,.42-2.09,1-.46,.58-.68,1.26-.68,2.05v5.1c0,.28-.08,.49-.23,.63-.15,.14-.36,.21-.61,.21s-.46-.07-.62-.22c-.16-.15-.24-.35-.24-.62v-8.86c0-.27,.08-.47,.25-.62s.37-.22,.61-.22c.22,0,.41,.07,.57,.22,.15,.15,.23,.35,.23,.6v1.18c.29-.62,.71-1.08,1.25-1.41,.54-.32,1.16-.51,1.86-.57l.29-.02c.59-.04,.88,.2,.88,.71Z"/><path d="M108.79,109.2c.11,.13,.17,.29,.17,.48,0,.35-.25,.67-.73,.97-.5,.29-1.04,.51-1.6,.66-.56,.15-1.11,.22-1.64,.22-1.58,0-2.83-.47-3.75-1.41s-1.38-2.23-1.38-3.89c0-1.05,.2-1.98,.61-2.78,.41-.8,.98-1.43,1.71-1.88,.73-.45,1.57-.67,2.51-.67,1.33,0,2.39,.43,3.17,1.3s1.18,2.04,1.18,3.53c0,.28-.06,.48-.17,.61-.11,.13-.29,.19-.55,.19h-6.76c.13,2.41,1.27,3.61,3.42,3.61,.55,0,1.02-.07,1.41-.22,.39-.15,.81-.35,1.26-.6,.36-.21,.61-.31,.74-.31,.15,0,.29,.06,.4,.19Zm-6.23-6.13c-.54,.56-.86,1.35-.96,2.37h5.94c-.03-1.04-.29-1.83-.78-2.38-.49-.55-1.18-.83-2.06-.83s-1.61,.28-2.15,.84Z"/><path d="M119.56,104.94v5.71c0,.25-.07,.46-.22,.61s-.35,.23-.6,.23-.46-.08-.61-.23c-.15-.15-.23-.36-.23-.61v-1.01c-.27,.6-.67,1.07-1.22,1.4-.55,.33-1.18,.49-1.89,.49-.66,0-1.26-.13-1.82-.4-.55-.27-.99-.64-1.31-1.11-.32-.48-.48-1-.48-1.57,0-.77,.2-1.37,.59-1.8,.39-.43,1.04-.74,1.93-.92s2.14-.28,3.74-.28h.46v-.69c0-.84-.17-1.46-.51-1.85s-.9-.59-1.67-.59c-.95,0-1.92,.26-2.9,.78-.38,.24-.64,.36-.8,.36-.17,0-.31-.06-.42-.19-.11-.13-.17-.29-.17-.48s.06-.37,.18-.51c.12-.15,.31-.3,.58-.45,.49-.28,1.05-.5,1.67-.66,.62-.16,1.24-.24,1.86-.24,2.56,0,3.84,1.34,3.84,4.03Zm-2.47,4.4c.54-.57,.81-1.3,.81-2.19v-.61h-.38c-1.23,0-2.17,.05-2.81,.16-.64,.1-1.1,.28-1.38,.52-.27,.25-.41,.61-.41,1.08,0,.55,.2,1,.6,1.35s.9,.54,1.5,.54c.84,0,1.53-.28,2.07-.85Z"/><path d="M128.13,110.82c0,.24-.09,.42-.26,.54-.18,.12-.44,.16-.79,.14l-.57-.04c-1.12-.08-1.95-.42-2.48-1.01-.53-.59-.8-1.48-.8-2.67v-5.27h-1.41c-.24,0-.42-.06-.56-.18-.13-.12-.2-.28-.2-.47,0-.21,.07-.38,.2-.5,.13-.13,.32-.19,.56-.19h1.41v-2.37c0-.27,.08-.47,.23-.62,.15-.15,.36-.22,.63-.22,.25,0,.46,.07,.61,.22,.15,.15,.23,.35,.23,.62v2.37h2.33c.22,0,.4,.06,.54,.19,.13,.13,.2,.29,.2,.5,0,.2-.07,.35-.2,.47-.13,.12-.31,.18-.54,.18h-2.33v5.35c0,.77,.16,1.33,.47,1.67,.31,.34,.79,.54,1.42,.58l.57,.04c.49,.04,.74,.27,.74,.67Z"/><path d="M138.13,109.2c.11,.13,.17,.29,.17,.48,0,.35-.25,.67-.73,.97-.5,.29-1.04,.51-1.6,.66-.56,.15-1.11,.22-1.64,.22-1.58,0-2.83-.47-3.75-1.41s-1.38-2.23-1.38-3.89c0-1.05,.2-1.98,.61-2.78,.41-.8,.98-1.43,1.71-1.88,.73-.45,1.57-.67,2.51-.67,1.33,0,2.39,.43,3.17,1.3s1.18,2.04,1.18,3.53c0,.28-.06,.48-.17,.61-.11,.13-.29,.19-.55,.19h-6.76c.13,2.41,1.27,3.61,3.42,3.61,.55,0,1.02-.07,1.41-.22,.39-.15,.81-.35,1.26-.6,.36-.21,.61-.31,.74-.31,.15,0,.29,.06,.4,.19Zm-6.23-6.13c-.54,.56-.86,1.35-.96,2.37h5.94c-.03-1.04-.29-1.83-.78-2.38-.49-.55-1.18-.83-2.06-.83s-1.61,.28-2.15,.84Z"/><path d="M146.78,111.25c-.15-.16-.23-.37-.23-.64v-13.19c0-.25,.08-.46,.24-.61,.16-.15,.37-.23,.64-.23h4.98c1.55,0,2.76,.38,3.62,1.13,.86,.76,1.29,1.83,1.29,3.21s-.43,2.46-1.3,3.23c-.87,.77-2.07,1.16-3.61,1.16h-4.14v5.29c0,.27-.08,.48-.23,.64-.15,.16-.36,.24-.63,.24s-.48-.08-.63-.24Zm5.46-7.36c2.25,0,3.38-.99,3.38-2.96s-1.13-2.92-3.38-2.92h-3.97v5.88h3.97Z"/><path d="M165.57,101.66c0,.22-.06,.4-.19,.54-.13,.13-.34,.21-.65,.24l-.63,.06c-.94,.08-1.63,.42-2.09,1-.46,.58-.68,1.26-.68,2.05v5.1c0,.28-.08,.49-.23,.63-.15,.14-.36,.21-.61,.21s-.46-.07-.62-.22c-.16-.15-.24-.35-.24-.62v-8.86c0-.27,.08-.47,.25-.62s.37-.22,.61-.22c.22,0,.41,.07,.57,.22,.15,.15,.23,.35,.23,.6v1.18c.29-.62,.71-1.08,1.25-1.41,.54-.32,1.16-.51,1.86-.57l.29-.02c.59-.04,.88,.2,.88,.71Z"/><path d="M168.52,110.88c-.74-.43-1.3-1.05-1.7-1.86s-.6-1.74-.6-2.8,.2-2,.6-2.8c.4-.8,.97-1.42,1.7-1.86,.73-.43,1.59-.65,2.55-.65s1.82,.22,2.56,.65c.74,.43,1.31,1.05,1.71,1.86,.4,.81,.6,1.74,.6,2.8s-.2,2-.6,2.8-.97,1.42-1.71,1.86-1.6,.65-2.56,.65-1.82-.22-2.55-.65Zm4.87-1.75c.54-.67,.81-1.63,.81-2.91s-.27-2.21-.82-2.89c-.55-.68-1.32-1.02-2.31-1.02s-1.76,.34-2.31,1.02c-.55,.68-.82,1.64-.82,2.89s.27,2.23,.81,2.9c.54,.67,1.31,1.01,2.32,1.01s1.78-.33,2.32-1Z"/><path d="M175.58,115.07c-.17-.12-.26-.3-.26-.54,0-.38,.25-.6,.74-.65l.59-.04c.63-.04,1.1-.23,1.4-.57,.3-.34,.45-.89,.45-1.66v-9.83c0-.27,.08-.47,.24-.62,.16-.15,.37-.22,.62-.22s.45,.07,.61,.22c.15,.15,.23,.35,.23,.62v9.72c0,1.18-.26,2.06-.79,2.65-.52,.59-1.34,.92-2.45,1.01l-.59,.04c-.35,.03-.61-.02-.79-.14Zm2.95-16.62c-.21-.2-.32-.45-.32-.78s.11-.56,.32-.76c.21-.2,.48-.29,.82-.29s.61,.1,.82,.29c.21,.2,.31,.45,.31,.76s-.1,.58-.31,.78c-.21,.2-.48,.29-.82,.29s-.61-.1-.82-.29Z"/><path d="M191.68,109.2c.11,.13,.17,.29,.17,.48,0,.35-.25,.67-.73,.97-.5,.29-1.04,.51-1.6,.66-.56,.15-1.11,.22-1.64,.22-1.58,0-2.83-.47-3.75-1.41s-1.38-2.23-1.38-3.89c0-1.05,.2-1.98,.61-2.78,.41-.8,.98-1.43,1.71-1.88,.73-.45,1.57-.67,2.51-.67,1.33,0,2.39,.43,3.17,1.3s1.18,2.04,1.18,3.53c0,.28-.06,.48-.17,.61-.11,.13-.29,.19-.55,.19h-6.76c.13,2.41,1.27,3.61,3.42,3.61,.55,0,1.02-.07,1.41-.22,.39-.15,.81-.35,1.26-.6,.36-.21,.61-.31,.74-.31,.15,0,.29,.06,.4,.19Zm-6.23-6.13c-.54,.56-.86,1.35-.96,2.37h5.94c-.03-1.04-.29-1.83-.78-2.38-.49-.55-1.18-.83-2.06-.83s-1.61,.28-2.15,.84Z"/><path d="M196.12,110.88c-.74-.43-1.3-1.05-1.7-1.85s-.6-1.72-.6-2.77,.21-1.98,.62-2.79c.41-.81,.99-1.44,1.73-1.89,.74-.45,1.6-.67,2.56-.67,.53,0,1.06,.07,1.59,.22,.53,.15,.98,.36,1.38,.64,.25,.17,.43,.33,.54,.49,.1,.16,.16,.34,.16,.54s-.05,.36-.16,.48-.24,.19-.41,.19c-.1,0-.2-.03-.31-.08-.11-.06-.21-.11-.28-.17-.08-.06-.13-.09-.16-.1-.36-.24-.71-.43-1.04-.57s-.73-.21-1.21-.21c-1.02,0-1.82,.35-2.38,1.04-.57,.69-.85,1.66-.85,2.89s.28,2.18,.85,2.86,1.36,1.01,2.38,1.01c.48,0,.89-.07,1.23-.21,.34-.14,.69-.33,1.04-.57,.15-.1,.3-.18,.44-.25,.14-.07,.26-.1,.36-.1,.15,0,.28,.06,.39,.19s.16,.29,.16,.48c0,.18-.05,.35-.15,.49-.1,.15-.28,.31-.55,.49-.39,.27-.86,.48-1.42,.64-.55,.16-1.11,.24-1.67,.24-.95,0-1.8-.22-2.53-.65Z"/><path d="M209.97,110.82c0,.24-.09,.42-.26,.54-.18,.12-.44,.16-.79,.14l-.57-.04c-1.12-.08-1.95-.42-2.48-1.01-.53-.59-.8-1.48-.8-2.67v-5.27h-1.41c-.24,0-.42-.06-.56-.18-.13-.12-.2-.28-.2-.47,0-.21,.07-.38,.2-.5,.13-.13,.32-.19,.56-.19h1.41v-2.37c0-.27,.08-.47,.23-.62,.15-.15,.36-.22,.63-.22,.25,0,.46,.07,.61,.22,.15,.15,.23,.35,.23,.62v2.37h2.33c.22,0,.4,.06,.54,.19,.13,.13,.2,.29,.2,.5,0,.2-.07,.35-.2,.47-.13,.12-.31,.18-.54,.18h-2.33v5.35c0,.77,.16,1.33,.47,1.67,.31,.34,.79,.54,1.42,.58l.57,.04c.49,.04,.74,.27,.74,.67Z"/><path d="M219.03,111.08c-.96-.31-1.73-.74-2.3-1.27-.21-.2-.31-.44-.31-.73,0-.2,.06-.37,.17-.51,.11-.15,.25-.22,.4-.22,.18,0,.38,.08,.59,.23,1.3,1.01,2.79,1.51,4.45,1.51,1.2,0,2.13-.23,2.77-.69,.64-.46,.97-1.12,.97-1.97,0-.49-.15-.89-.46-1.19-.31-.3-.71-.54-1.22-.72s-1.18-.37-2.04-.57c-1.15-.27-2.09-.55-2.82-.84s-1.33-.71-1.79-1.26-.68-1.26-.68-2.14,.23-1.59,.68-2.24c.46-.65,1.09-1.16,1.91-1.51s1.75-.54,2.8-.54c.98,0,1.89,.15,2.74,.45,.85,.3,1.56,.73,2.13,1.29,.22,.22,.34,.47,.34,.73,0,.2-.06,.37-.17,.51-.11,.15-.25,.22-.4,.22s-.36-.08-.61-.23c-.69-.56-1.32-.95-1.91-1.18-.59-.22-1.29-.34-2.12-.34-1.16,0-2.07,.24-2.71,.72-.64,.48-.97,1.16-.97,2.03,0,.74,.28,1.3,.85,1.67,.57,.37,1.44,.7,2.61,.98,1.27,.31,2.27,.59,3,.85,.73,.26,1.33,.65,1.82,1.17s.72,1.21,.72,2.08-.23,1.55-.68,2.18c-.46,.63-1.1,1.12-1.92,1.47-.83,.35-1.77,.52-2.84,.52s-2.05-.16-3.01-.47Z"/><path d="M235.42,110.82c0,.24-.09,.42-.26,.54-.18,.12-.44,.16-.79,.14l-.57-.04c-1.12-.08-1.95-.42-2.48-1.01-.53-.59-.8-1.48-.8-2.67v-5.27h-1.41c-.24,0-.42-.06-.56-.18-.13-.12-.2-.28-.2-.47,0-.21,.07-.38,.2-.5,.13-.13,.32-.19,.56-.19h1.41v-2.37c0-.27,.08-.47,.23-.62,.15-.15,.36-.22,.63-.22,.25,0,.46,.07,.61,.22,.15,.15,.23,.35,.23,.62v2.37h2.33c.22,0,.4,.06,.54,.19,.13,.13,.2,.29,.2,.5,0,.2-.07,.35-.2,.47-.13,.12-.31,.18-.54,.18h-2.33v5.35c0,.77,.16,1.33,.47,1.67,.31,.34,.79,.54,1.42,.58l.57,.04c.49,.04,.74,.27,.74,.67Z"/><path d="M243.04,101.66c0,.22-.06,.4-.19,.54-.13,.13-.34,.21-.65,.24l-.63,.06c-.94,.08-1.63,.42-2.09,1-.46,.58-.68,1.26-.68,2.05v5.1c0,.28-.08,.49-.23,.63-.15,.14-.36,.21-.61,.21s-.46-.07-.62-.22c-.16-.15-.24-.35-.24-.62v-8.86c0-.27,.08-.47,.25-.62s.37-.22,.61-.22c.22,0,.41,.07,.57,.22,.15,.15,.23,.35,.23,.6v1.18c.29-.62,.71-1.08,1.25-1.41,.54-.32,1.16-.51,1.86-.57l.29-.02c.59-.04,.88,.2,.88,.71Z"/><path d="M252.9,101.18c.15,.15,.22,.36,.22,.61v8.88c0,.24-.07,.43-.22,.59s-.35,.23-.62,.23-.45-.07-.6-.22c-.15-.15-.22-.34-.22-.58v-1.05c-.32,.62-.77,1.09-1.35,1.41-.58,.32-1.24,.48-1.96,.48-1.22,0-2.14-.34-2.75-1.02-.62-.68-.92-1.68-.92-3.01v-5.71c0-.25,.08-.45,.23-.61s.36-.23,.63-.23,.47,.08,.62,.23c.15,.15,.22,.36,.22,.61v5.67c0,.91,.18,1.58,.55,2.01,.36,.43,.94,.64,1.72,.64,.9,0,1.62-.29,2.16-.87s.82-1.35,.82-2.3v-5.15c0-.25,.08-.45,.23-.61s.36-.23,.63-.23,.47,.08,.62,.23Z"/><path d="M257.98,110.88c-.74-.43-1.3-1.05-1.7-1.85s-.6-1.72-.6-2.77,.21-1.98,.62-2.79c.41-.81,.99-1.44,1.73-1.89,.74-.45,1.6-.67,2.56-.67,.53,0,1.06,.07,1.59,.22,.53,.15,.98,.36,1.38,.64,.25,.17,.43,.33,.54,.49,.1,.16,.16,.34,.16,.54s-.05,.36-.16,.48-.24,.19-.41,.19c-.1,0-.2-.03-.31-.08-.11-.06-.21-.11-.28-.17-.08-.06-.13-.09-.16-.1-.36-.24-.71-.43-1.04-.57s-.73-.21-1.21-.21c-1.02,0-1.82,.35-2.38,1.04-.57,.69-.85,1.66-.85,2.89s.28,2.18,.85,2.86,1.36,1.01,2.38,1.01c.48,0,.89-.07,1.23-.21,.34-.14,.69-.33,1.04-.57,.15-.1,.3-.18,.44-.25,.14-.07,.26-.1,.36-.1,.15,0,.28,.06,.39,.19s.16,.29,.16,.48c0,.18-.05,.35-.15,.49-.1,.15-.28,.31-.55,.49-.39,.27-.86,.48-1.42,.64-.55,.16-1.11,.24-1.67,.24-.95,0-1.8-.22-2.53-.65Z"/><path d="M271.83,110.82c0,.24-.09,.42-.26,.54-.18,.12-.44,.16-.79,.14l-.57-.04c-1.12-.08-1.95-.42-2.48-1.01-.53-.59-.8-1.48-.8-2.67v-5.27h-1.41c-.24,0-.42-.06-.56-.18-.13-.12-.2-.28-.2-.47,0-.21,.07-.38,.2-.5,.13-.13,.32-.19,.56-.19h1.41v-2.37c0-.27,.08-.47,.23-.62,.15-.15,.36-.22,.63-.22,.25,0,.46,.07,.61,.22,.15,.15,.23,.35,.23,.62v2.37h2.33c.22,0,.4,.06,.54,.19,.13,.13,.2,.29,.2,.5,0,.2-.07,.35-.2,.47-.13,.12-.31,.18-.54,.18h-2.33v5.35c0,.77,.16,1.33,.47,1.67,.31,.34,.79,.54,1.42,.58l.57,.04c.49,.04,.74,.27,.74,.67Z"/><path d="M281.9,101.18c.15,.15,.22,.36,.22,.61v8.88c0,.24-.07,.43-.22,.59s-.35,.23-.62,.23-.45-.07-.6-.22c-.15-.15-.22-.34-.22-.58v-1.05c-.32,.62-.77,1.09-1.35,1.41-.58,.32-1.24,.48-1.96,.48-1.22,0-2.14-.34-2.75-1.02-.62-.68-.92-1.68-.92-3.01v-5.71c0-.25,.08-.45,.23-.61s.36-.23,.63-.23,.47,.08,.62,.23c.15,.15,.22,.36,.22,.61v5.67c0,.91,.18,1.58,.55,2.01,.36,.43,.94,.64,1.72,.64,.9,0,1.62-.29,2.16-.87s.82-1.35,.82-2.3v-5.15c0-.25,.08-.45,.23-.61s.36-.23,.63-.23,.47,.08,.62,.23Z"/><path d="M291.24,101.66c0,.22-.06,.4-.19,.54-.13,.13-.34,.21-.65,.24l-.63,.06c-.94,.08-1.63,.42-2.09,1-.46,.58-.68,1.26-.68,2.05v5.1c0,.28-.08,.49-.23,.63-.15,.14-.36,.21-.61,.21s-.46-.07-.62-.22c-.16-.15-.24-.35-.24-.62v-8.86c0-.27,.08-.47,.25-.62s.37-.22,.61-.22c.22,0,.41,.07,.57,.22,.15,.15,.23,.35,.23,.6v1.18c.29-.62,.71-1.08,1.25-1.41,.54-.32,1.16-.51,1.86-.57l.29-.02c.59-.04,.88,.2,.88,.71Z"/><path d="M300.81,109.2c.11,.13,.17,.29,.17,.48,0,.35-.25,.67-.73,.97-.5,.29-1.04,.51-1.6,.66-.56,.15-1.11,.22-1.64,.22-1.58,0-2.83-.47-3.75-1.41s-1.38-2.23-1.38-3.89c0-1.05,.2-1.98,.61-2.78,.41-.8,.98-1.43,1.71-1.88,.73-.45,1.57-.67,2.51-.67,1.33,0,2.39,.43,3.17,1.3s1.18,2.04,1.18,3.53c0,.28-.06,.48-.17,.61-.11,.13-.29,.19-.55,.19h-6.76c.13,2.41,1.27,3.61,3.42,3.61,.55,0,1.02-.07,1.41-.22,.39-.15,.81-.35,1.26-.6,.36-.21,.61-.31,.74-.31,.15,0,.29,.06,.4,.19Zm-6.23-6.13c-.54,.56-.86,1.35-.96,2.37h5.94c-.03-1.04-.29-1.83-.78-2.38-.49-.55-1.18-.83-2.06-.83s-1.61,.28-2.15,.84Z"/></g><path class="cls-5" d="M416.49,103.76c0,24,19.45,43.45,43.45,43.45h187.17c24,0,43.45-19.45,43.45-43.45s-19.45-43.45-43.45-43.45h-187.17c-24,0-43.45,19.45-43.45,43.45,0,0,0-24,0,0Z"/><g><path d="M481.28,111.25c-.96-.31-1.73-.74-2.3-1.27-.21-.2-.31-.44-.31-.73,0-.2,.06-.37,.17-.51,.11-.15,.25-.22,.4-.22,.18,0,.38,.08,.59,.23,1.3,1.01,2.79,1.51,4.45,1.51,1.2,0,2.13-.23,2.77-.69,.64-.46,.97-1.12,.97-1.97,0-.49-.15-.89-.46-1.19-.31-.3-.71-.54-1.22-.72s-1.18-.37-2.04-.57c-1.15-.27-2.09-.55-2.82-.84s-1.33-.71-1.79-1.26-.68-1.26-.68-2.14,.23-1.59,.68-2.24c.46-.65,1.09-1.16,1.91-1.51s1.75-.54,2.8-.54c.98,0,1.89,.15,2.74,.45,.85,.3,1.56,.73,2.13,1.29,.22,.22,.34,.47,.34,.73,0,.2-.06,.37-.17,.51-.11,.15-.25,.22-.4,.22s-.36-.08-.61-.23c-.69-.56-1.32-.95-1.91-1.18-.59-.22-1.29-.34-2.12-.34-1.16,0-2.07,.24-2.71,.72-.64,.48-.97,1.16-.97,2.03,0,.74,.28,1.3,.85,1.67,.57,.37,1.44,.7,2.61,.98,1.27,.31,2.27,.59,3,.85,.73,.26,1.33,.65,1.82,1.17s.72,1.21,.72,2.08-.23,1.55-.68,2.18c-.46,.63-1.1,1.12-1.92,1.47-.83,.35-1.77,.52-2.84,.52s-2.05-.16-3.01-.47Z"/><path d="M500.59,109.37c.11,.13,.17,.29,.17,.48,0,.35-.25,.67-.73,.97-.5,.29-1.04,.51-1.6,.66-.56,.15-1.11,.22-1.64,.22-1.58,0-2.83-.47-3.75-1.41s-1.38-2.23-1.38-3.89c0-1.05,.2-1.98,.61-2.78,.41-.8,.98-1.43,1.71-1.88,.73-.45,1.57-.67,2.51-.67,1.33,0,2.39,.43,3.17,1.3s1.18,2.04,1.18,3.53c0,.28-.06,.48-.17,.61-.11,.13-.29,.19-.55,.19h-6.76c.13,2.41,1.27,3.61,3.42,3.61,.55,0,1.02-.07,1.41-.22,.39-.15,.81-.35,1.26-.6,.36-.21,.61-.31,.74-.31,.15,0,.29,.06,.4,.19Zm-6.23-6.13c-.54,.56-.86,1.35-.96,2.37h5.94c-.03-1.04-.29-1.83-.78-2.38-.49-.55-1.18-.83-2.06-.83s-1.61,.28-2.15,.84Z"/><path d="M509.28,101.83c0,.22-.06,.4-.19,.54-.13,.13-.34,.21-.65,.24l-.63,.06c-.94,.08-1.63,.42-2.09,1-.46,.58-.68,1.26-.68,2.05v5.1c0,.28-.08,.49-.23,.63-.15,.14-.36,.21-.61,.21s-.46-.07-.62-.22c-.16-.15-.24-.35-.24-.62v-8.86c0-.27,.08-.47,.25-.62s.37-.22,.61-.22c.22,0,.41,.07,.57,.22,.15,.15,.23,.35,.23,.6v1.18c.29-.62,.71-1.08,1.25-1.41,.54-.32,1.16-.51,1.86-.57l.29-.02c.59-.04,.88,.2,.88,.71Z"/><path d="M510.79,98.62c-.21-.2-.32-.45-.32-.78s.11-.56,.32-.76c.21-.2,.48-.29,.82-.29s.61,.1,.82,.29c.21,.2,.31,.45,.31,.76s-.1,.58-.31,.78c-.21,.2-.48,.29-.82,.29s-.61-.1-.82-.29Zm.2,12.82c-.16-.15-.24-.35-.24-.62v-8.86c0-.27,.08-.47,.24-.62,.16-.15,.37-.22,.62-.22s.45,.07,.61,.22c.15,.15,.23,.35,.23,.62v8.86c0,.28-.08,.49-.23,.63-.15,.14-.36,.21-.61,.21s-.46-.07-.62-.22Z"/><path d="M523.65,105.11v5.71c0,.25-.07,.46-.22,.61s-.35,.23-.6,.23-.46-.08-.61-.23c-.15-.15-.23-.36-.23-.61v-1.01c-.27,.6-.67,1.07-1.22,1.4-.55,.33-1.18,.49-1.89,.49-.66,0-1.26-.13-1.82-.4-.55-.27-.99-.64-1.31-1.11-.32-.48-.48-1-.48-1.57,0-.77,.2-1.37,.59-1.8,.39-.43,1.04-.74,1.93-.92s2.14-.28,3.74-.28h.46v-.69c0-.84-.17-1.46-.51-1.85s-.9-.59-1.67-.59c-.95,0-1.92,.26-2.9,.78-.38,.24-.64,.36-.8,.36-.17,0-.31-.06-.42-.19-.11-.13-.17-.29-.17-.48s.06-.37,.18-.51c.12-.15,.31-.3,.58-.45,.49-.28,1.05-.5,1.67-.66,.62-.16,1.24-.24,1.86-.24,2.56,0,3.84,1.34,3.84,4.03Zm-2.47,4.4c.54-.57,.81-1.3,.81-2.19v-.61h-.38c-1.23,0-2.17,.05-2.81,.16-.64,.1-1.1,.28-1.38,.52-.27,.25-.41,.61-.41,1.08,0,.55,.2,1,.6,1.35s.9,.54,1.5,.54c.84,0,1.53-.28,2.07-.85Z"/><path d="M527,111.44c-.16-.15-.24-.35-.24-.62v-13.33c0-.27,.08-.47,.24-.62,.16-.15,.37-.22,.62-.22,.24,0,.44,.07,.6,.22,.16,.15,.24,.35,.24,.62v13.33c0,.27-.08,.47-.24,.62-.16,.15-.36,.22-.6,.22-.25,0-.46-.07-.62-.22Z"/><path d="M531.67,98.62c-.21-.2-.32-.45-.32-.78s.11-.56,.32-.76c.21-.2,.48-.29,.82-.29s.61,.1,.82,.29c.21,.2,.31,.45,.31,.76s-.1,.58-.31,.78c-.21,.2-.48,.29-.82,.29s-.61-.1-.82-.29Zm.2,12.82c-.16-.15-.24-.35-.24-.62v-8.86c0-.27,.08-.47,.24-.62,.16-.15,.37-.22,.62-.22s.45,.07,.61,.22c.15,.15,.23,.35,.23,.62v8.86c0,.28-.08,.49-.23,.63-.15,.14-.36,.21-.61,.21s-.46-.07-.62-.22Z"/><path d="M544.56,110.39c.13,.12,.19,.28,.19,.49s-.06,.37-.19,.49c-.13,.12-.31,.18-.55,.18h-7.35c-.24,0-.43-.07-.59-.22-.15-.15-.23-.33-.23-.54,0-.22,.08-.44,.25-.65l6.22-7.48h-5.75c-.24,0-.42-.06-.56-.18-.13-.12-.2-.28-.2-.47,0-.21,.07-.38,.2-.5,.13-.13,.32-.19,.56-.19h7.12c.25,0,.46,.07,.61,.22,.15,.15,.23,.33,.23,.54,0,.22-.08,.44-.25,.65l-6.24,7.48h5.98c.24,0,.42,.06,.55,.18Z"/><path d="M555.15,109.37c.11,.13,.17,.29,.17,.48,0,.35-.25,.67-.73,.97-.5,.29-1.04,.51-1.6,.66-.56,.15-1.11,.22-1.64,.22-1.58,0-2.83-.47-3.75-1.41s-1.38-2.23-1.38-3.89c0-1.05,.2-1.98,.61-2.78,.41-.8,.98-1.43,1.71-1.88,.73-.45,1.57-.67,2.51-.67,1.33,0,2.39,.43,3.17,1.3s1.18,2.04,1.18,3.53c0,.28-.06,.48-.17,.61-.11,.13-.29,.19-.55,.19h-6.76c.13,2.41,1.27,3.61,3.42,3.61,.55,0,1.02-.07,1.41-.22,.39-.15,.81-.35,1.26-.6,.36-.21,.61-.31,.74-.31,.15,0,.29,.06,.4,.19Zm-6.23-6.13c-.54,.56-.86,1.35-.96,2.37h5.94c-.03-1.04-.29-1.83-.78-2.38-.49-.55-1.18-.83-2.06-.83s-1.61,.28-2.15,.84Z"/><path d="M577.33,96.89c.15,.16,.22,.37,.22,.64v13.29c0,.25-.07,.46-.21,.61-.14,.15-.34,.23-.59,.23s-.44-.08-.57-.23c-.13-.15-.19-.36-.19-.61v-10.73l-4.56,8.74c-.2,.41-.48,.61-.86,.61s-.65-.2-.86-.61l-4.58-8.63v10.63c0,.25-.07,.46-.2,.61-.13,.15-.33,.23-.58,.23s-.45-.08-.59-.23c-.14-.15-.21-.36-.21-.61v-13.29c0-.27,.08-.48,.23-.64,.15-.16,.36-.24,.63-.24,.35,0,.63,.2,.84,.61l5.33,10.23,5.27-10.23c.11-.22,.23-.38,.37-.47,.13-.09,.29-.14,.47-.14,.27,0,.47,.08,.62,.24Z"/><path d="M582.67,111.05c-.74-.43-1.3-1.05-1.7-1.86s-.6-1.74-.6-2.8,.2-2,.6-2.8c.4-.8,.97-1.42,1.7-1.86,.73-.43,1.59-.65,2.55-.65s1.82,.22,2.56,.65c.74,.43,1.31,1.05,1.71,1.86,.4,.81,.6,1.74,.6,2.8s-.2,2-.6,2.8-.97,1.42-1.71,1.86-1.6,.65-2.56,.65-1.82-.22-2.55-.65Zm4.87-1.75c.54-.67,.81-1.63,.81-2.91s-.27-2.21-.82-2.89c-.55-.68-1.32-1.02-2.31-1.02s-1.76,.34-2.31,1.02c-.55,.68-.82,1.64-.82,2.89s.27,2.23,.81,2.9c.54,.67,1.31,1.01,2.32,1.01s1.78-.33,2.32-1Z"/><path d="M601.47,96.88c.15,.15,.23,.35,.23,.59v13.36c0,.25-.08,.46-.23,.61-.15,.15-.36,.23-.63,.23s-.47-.08-.62-.23-.22-.36-.22-.61v-1.13c-.31,.64-.76,1.14-1.35,1.49-.6,.35-1.29,.52-2.09,.52-.9,0-1.69-.22-2.37-.67-.69-.45-1.22-1.07-1.6-1.88-.38-.81-.57-1.74-.57-2.8s.19-1.97,.57-2.77c.38-.8,.91-1.41,1.6-1.85,.69-.43,1.48-.65,2.37-.65,.8,0,1.49,.18,2.09,.52,.6,.35,1.05,.85,1.35,1.49v-5.63c0-.25,.07-.45,.22-.6s.35-.22,.62-.22,.48,.08,.63,.23Zm-2.28,12.4c.54-.68,.81-1.64,.81-2.89s-.27-2.21-.81-2.88c-.54-.67-1.31-1.01-2.3-1.01s-1.77,.34-2.32,1.01c-.55,.67-.83,1.62-.83,2.83s.28,2.22,.83,2.91c.55,.69,1.33,1.04,2.32,1.04s1.76-.34,2.3-1.02Z"/><path d="M613.17,109.37c.11,.13,.17,.29,.17,.48,0,.35-.25,.67-.73,.97-.5,.29-1.04,.51-1.6,.66-.56,.15-1.11,.22-1.64,.22-1.58,0-2.83-.47-3.75-1.41s-1.38-2.23-1.38-3.89c0-1.05,.2-1.98,.61-2.78,.41-.8,.98-1.43,1.71-1.88,.73-.45,1.57-.67,2.51-.67,1.33,0,2.39,.43,3.17,1.3s1.18,2.04,1.18,3.53c0,.28-.06,.48-.17,.61-.11,.13-.29,.19-.55,.19h-6.76c.13,2.41,1.27,3.61,3.42,3.61,.55,0,1.02-.07,1.41-.22,.39-.15,.81-.35,1.26-.6,.36-.21,.61-.31,.74-.31,.15,0,.29,.06,.4,.19Zm-6.23-6.13c-.54,.56-.86,1.35-.96,2.37h5.94c-.03-1.04-.29-1.83-.78-2.38-.49-.55-1.18-.83-2.06-.83s-1.61,.28-2.15,.84Z"/><path d="M616.16,111.44c-.16-.15-.24-.35-.24-.62v-13.33c0-.27,.08-.47,.24-.62,.16-.15,.37-.22,.62-.22,.24,0,.44,.07,.6,.22,.16,.15,.24,.35,.24,.62v13.33c0,.27-.08,.47-.24,.62-.16,.15-.36,.22-.6,.22-.25,0-.46-.07-.62-.22Z"/><path d="M622.4,111.47c-.58-.15-1.1-.37-1.54-.65-.25-.17-.43-.33-.54-.47s-.16-.33-.16-.54c0-.18,.05-.33,.16-.45s.24-.18,.41-.18,.41,.1,.73,.31c.42,.25,.84,.45,1.25,.6,.41,.15,.93,.22,1.54,.22,.76,0,1.34-.13,1.76-.4,.42-.27,.63-.65,.63-1.15,0-.31-.08-.56-.23-.75-.15-.19-.42-.36-.8-.5-.38-.15-.93-.3-1.66-.45-1.23-.27-2.11-.62-2.65-1.07-.53-.45-.8-1.06-.8-1.83,0-.6,.17-1.13,.5-1.6,.34-.46,.8-.83,1.4-1.09,.59-.27,1.27-.4,2.03-.4,.55,0,1.07,.07,1.59,.22,.51,.15,.96,.35,1.35,.62,.48,.34,.71,.69,.71,1.05,0,.18-.06,.34-.17,.46-.11,.13-.25,.19-.4,.19-.17,0-.42-.12-.76-.36-.39-.25-.76-.45-1.11-.59s-.78-.21-1.3-.21c-.66,0-1.19,.15-1.59,.44s-.6,.69-.6,1.18c0,.31,.07,.56,.22,.75s.39,.36,.73,.5c.34,.15,.84,.29,1.48,.43,.95,.21,1.69,.44,2.22,.69,.53,.25,.9,.56,1.12,.92,.22,.36,.34,.83,.34,1.39,0,.88-.37,1.59-1.11,2.13-.74,.54-1.72,.81-2.94,.81-.64,0-1.26-.08-1.84-.23Z"/></g><path class="cls-5" d="M780.27,103.76c0,24,19.45,43.45,43.45,43.45h187.17c24,0,43.45-19.45,43.45-43.45s-19.45-43.45-43.45-43.45h-187.17c-24,0-43.45,19.45-43.45,43.45,0,0,0-24,0,0Z"/><g><path d="M847.53,110.81c-1.02-.61-1.81-1.48-2.36-2.62-.55-1.14-.83-2.49-.83-4.04s.28-2.88,.83-4.02c.55-1.14,1.34-2.02,2.36-2.62,1.02-.61,2.23-.91,3.63-.91,.94,0,1.82,.15,2.66,.45,.83,.3,1.56,.73,2.17,1.29,.22,.21,.34,.46,.34,.73,0,.2-.06,.37-.17,.51-.11,.15-.25,.22-.4,.22-.17,0-.37-.08-.61-.23-.71-.56-1.36-.95-1.94-1.18-.58-.22-1.25-.34-2-.34-1.62,0-2.87,.53-3.75,1.59s-1.31,2.56-1.31,4.5,.44,3.47,1.31,4.53c.88,1.06,2.12,1.59,3.75,1.59,.74,0,1.41-.11,2-.34,.59-.22,1.24-.62,1.95-1.18,.24-.15,.44-.23,.61-.23,.15,0,.29,.07,.4,.21,.11,.14,.17,.31,.17,.52,0,.28-.11,.52-.34,.73-.62,.56-1.34,.99-2.17,1.29-.83,.3-1.72,.45-2.66,.45-1.4,0-2.61-.3-3.63-.91Z"/><path d="M860.33,111.05c-.74-.43-1.3-1.05-1.7-1.86-.4-.81-.6-1.74-.6-2.8s.2-2,.6-2.8c.4-.8,.97-1.42,1.7-1.86,.74-.43,1.59-.65,2.55-.65s1.82,.22,2.56,.65c.74,.43,1.31,1.05,1.71,1.86,.4,.81,.6,1.74,.6,2.8s-.2,2-.6,2.8c-.4,.81-.97,1.42-1.71,1.86s-1.6,.65-2.56,.65-1.82-.22-2.55-.65Zm4.87-1.75c.54-.67,.81-1.63,.81-2.91s-.27-2.21-.82-2.89c-.55-.68-1.32-1.02-2.31-1.02s-1.76,.34-2.31,1.02c-.55,.68-.82,1.64-.82,2.89s.27,2.23,.81,2.9c.54,.67,1.31,1.01,2.32,1.01s1.78-.33,2.32-1Z"/><path d="M877.81,101.75c.69,.45,1.22,1.07,1.6,1.88,.38,.81,.57,1.74,.57,2.8s-.19,1.99-.57,2.78-.91,1.4-1.58,1.84c-.68,.43-1.47,.65-2.38,.65-.8,0-1.49-.17-2.09-.52-.59-.35-1.05-.85-1.35-1.49v4.94c0,.25-.07,.45-.22,.6-.15,.15-.35,.22-.62,.22s-.48-.08-.63-.23c-.15-.15-.23-.35-.23-.59v-12.66c0-.25,.08-.45,.23-.61,.15-.15,.36-.23,.63-.23s.47,.08,.62,.23c.15,.15,.22,.36,.22,.61v1.13c.31-.64,.76-1.14,1.35-1.49,.6-.35,1.29-.52,2.09-.52,.9,0,1.69,.22,2.37,.67Zm-.4,7.54c.55-.67,.82-1.62,.82-2.86s-.27-2.19-.82-2.89c-.55-.69-1.32-1.04-2.31-1.04s-1.76,.34-2.3,1.01-.81,1.63-.81,2.88,.27,2.21,.81,2.89,1.31,1.02,2.3,1.02,1.76-.34,2.31-1.01Z"/><path d="M890.5,101.14c.21,0,.4,.07,.57,.21,.17,.14,.25,.31,.25,.52,0,.13-.03,.24-.08,.34l-5.9,12.73c-.07,.15-.17,.27-.3,.36s-.27,.13-.41,.13c-.21,0-.4-.07-.56-.2-.16-.13-.24-.3-.24-.51,0-.11,.03-.22,.08-.34l1.47-3.17-4.16-8.99c-.06-.1-.08-.2-.08-.31,0-.21,.09-.39,.28-.55,.19-.15,.39-.23,.62-.23,.14,0,.28,.04,.41,.13s.23,.2,.3,.36l3.51,7.88,3.51-7.83c.15-.34,.4-.5,.74-.5Z"/><path d="M899.1,111.33c-.16-.15-.24-.36-.24-.61v-13.12c0-.25,.08-.46,.24-.61,.16-.15,.37-.23,.64-.23h4.09c2.37,0,4.2,.64,5.49,1.92,1.29,1.28,1.94,3.1,1.94,5.47s-.65,4.19-1.95,5.48c-1.3,1.29-3.13,1.93-5.48,1.93h-4.09c-.27,0-.48-.08-.64-.23Zm4.63-1.24c3.83,0,5.75-1.98,5.75-5.94s-1.92-5.92-5.75-5.92h-3.15v11.86h3.15Z"/><path d="M915.81,111.05c-.74-.43-1.3-1.05-1.7-1.86-.4-.81-.6-1.74-.6-2.8s.2-2,.6-2.8c.4-.8,.97-1.42,1.7-1.86,.74-.43,1.59-.65,2.55-.65s1.82,.22,2.56,.65c.74,.43,1.31,1.05,1.71,1.86,.4,.81,.6,1.74,.6,2.8s-.2,2-.6,2.8c-.4,.81-.97,1.42-1.71,1.86s-1.6,.65-2.56,.65-1.82-.22-2.55-.65Zm4.87-1.75c.54-.67,.81-1.63,.81-2.91s-.27-2.21-.82-2.89c-.55-.68-1.32-1.02-2.31-1.02s-1.76,.34-2.31,1.02c-.55,.68-.82,1.64-.82,2.89s.27,2.23,.81,2.9c.54,.67,1.31,1.01,2.32,1.01s1.78-.33,2.32-1Z"/><path d="M927.47,111.05c-.74-.43-1.3-1.05-1.7-1.85-.4-.8-.6-1.72-.6-2.77s.21-1.98,.62-2.79,.99-1.44,1.73-1.89c.74-.45,1.6-.67,2.56-.67,.53,0,1.06,.07,1.58,.22,.53,.15,.98,.36,1.38,.64,.25,.17,.43,.33,.54,.49,.11,.16,.16,.34,.16,.54s-.05,.36-.16,.48c-.1,.13-.24,.19-.41,.19-.1,0-.2-.03-.32-.08-.11-.06-.21-.11-.28-.17-.08-.06-.13-.09-.16-.1-.36-.24-.71-.43-1.04-.57s-.73-.21-1.21-.21c-1.02,0-1.82,.35-2.38,1.04-.57,.69-.85,1.66-.85,2.89s.28,2.18,.85,2.86c.57,.67,1.36,1.01,2.38,1.01,.48,0,.88-.07,1.23-.21,.34-.14,.69-.33,1.04-.57,.15-.1,.3-.18,.44-.25s.26-.1,.36-.1c.15,0,.28,.06,.39,.19,.11,.13,.16,.29,.16,.48,0,.18-.05,.35-.15,.49s-.28,.31-.55,.49c-.39,.27-.86,.48-1.42,.64-.55,.16-1.11,.24-1.67,.24-.95,0-1.8-.22-2.53-.65Z"/><path d="M944.34,110.88c0,.21-.07,.39-.22,.55-.15,.15-.33,.23-.54,.23-.18,0-.37-.08-.57-.25l-5.48-4.73v4.14c0,.27-.08,.47-.24,.62-.16,.15-.36,.22-.6,.22-.25,0-.46-.07-.62-.22-.16-.15-.24-.35-.24-.62v-13.33c0-.27,.08-.47,.24-.62,.16-.15,.37-.22,.62-.22,.24,0,.44,.07,.6,.22s.24,.35,.24,.62v8.53l5.02-4.6c.17-.17,.36-.25,.57-.25s.39,.08,.55,.23c.15,.15,.23,.34,.23,.55,0,.24-.1,.45-.29,.63l-4.14,3.7,4.54,3.95c.22,.21,.34,.43,.34,.67Z"/><path d="M954.46,109.37c.11,.13,.17,.29,.17,.48,0,.35-.25,.67-.73,.97-.5,.29-1.04,.51-1.6,.66-.56,.15-1.11,.22-1.64,.22-1.58,0-2.83-.47-3.75-1.41s-1.38-2.23-1.38-3.89c0-1.05,.2-1.98,.61-2.78,.41-.8,.98-1.43,1.71-1.88,.74-.45,1.57-.67,2.51-.67,1.33,0,2.39,.43,3.17,1.3s1.18,2.04,1.18,3.53c0,.28-.06,.48-.17,.61s-.29,.19-.55,.19h-6.76c.13,2.41,1.27,3.61,3.42,3.61,.55,0,1.01-.07,1.41-.22,.39-.15,.81-.35,1.26-.6,.36-.21,.61-.31,.74-.31,.15,0,.29,.06,.4,.19Zm-6.23-6.13c-.54,.56-.86,1.35-.96,2.37h5.94c-.03-1.04-.29-1.83-.78-2.38-.49-.55-1.18-.83-2.06-.83s-1.61,.28-2.15,.84Z"/><path d="M963.16,101.83c0,.22-.06,.4-.19,.54-.13,.13-.34,.21-.65,.24l-.63,.06c-.94,.08-1.63,.42-2.09,1-.46,.58-.68,1.26-.68,2.05v5.1c0,.28-.08,.49-.23,.63s-.36,.21-.61,.21-.46-.07-.62-.22c-.16-.15-.24-.35-.24-.62v-8.86c0-.27,.08-.47,.25-.62s.37-.22,.61-.22c.22,0,.41,.07,.57,.22s.23,.35,.23,.6v1.18c.29-.62,.71-1.08,1.25-1.41,.54-.32,1.16-.51,1.86-.57l.29-.02c.59-.04,.88,.2,.88,.71Z"/><path d="M973.83,101.52c.13,.13,.19,.29,.19,.5v8.8c0,.27-.08,.47-.24,.62-.16,.15-.36,.22-.6,.22-.25,0-.46-.07-.62-.22-.16-.15-.24-.35-.24-.62v-8.15h-4.6v8.15c0,.27-.08,.47-.24,.62-.16,.15-.36,.22-.6,.22-.25,0-.46-.07-.62-.22-.16-.15-.24-.35-.24-.62v-8.15h-1.41c-.24,0-.42-.06-.56-.18-.13-.12-.2-.28-.2-.47,0-.21,.07-.38,.2-.5s.32-.19,.56-.19h1.41v-.36c0-1.26,.31-2.25,.94-2.97,.63-.72,1.53-1.13,2.71-1.23l.5-.04c.67-.06,1.01,.15,1.01,.63,0,.41-.24,.64-.71,.69l-.5,.04c-.74,.06-1.3,.29-1.68,.7s-.57,1.03-.57,1.86v.67h5.57c.24,0,.42,.06,.55,.19Zm.16-4.43c.22,.2,.33,.45,.33,.76s-.11,.58-.32,.78c-.21,.2-.48,.29-.82,.29s-.61-.1-.82-.29c-.21-.2-.32-.45-.32-.78s.11-.56,.32-.76c.21-.2,.48-.29,.82-.29s.59,.1,.81,.29Z"/><path d="M977.43,111.44c-.16-.15-.24-.35-.24-.62v-13.33c0-.27,.08-.47,.24-.62,.16-.15,.37-.22,.62-.22,.24,0,.44,.07,.6,.22s.24,.35,.24,.62v13.33c0,.27-.08,.47-.24,.62-.16,.15-.36,.22-.6,.22-.25,0-.46-.07-.62-.22Z"/><path d="M990.37,109.37c.11,.13,.17,.29,.17,.48,0,.35-.25,.67-.73,.97-.5,.29-1.04,.51-1.6,.66-.56,.15-1.11,.22-1.64,.22-1.58,0-2.83-.47-3.75-1.41s-1.38-2.23-1.38-3.89c0-1.05,.2-1.98,.61-2.78,.41-.8,.98-1.43,1.71-1.88,.74-.45,1.57-.67,2.51-.67,1.33,0,2.39,.43,3.17,1.3s1.18,2.04,1.18,3.53c0,.28-.06,.48-.17,.61s-.29,.19-.55,.19h-6.76c.13,2.41,1.27,3.61,3.42,3.61,.55,0,1.01-.07,1.41-.22,.39-.15,.81-.35,1.26-.6,.36-.21,.61-.31,.74-.31,.15,0,.29,.06,.4,.19Zm-6.23-6.13c-.54,.56-.86,1.35-.96,2.37h5.94c-.03-1.04-.29-1.83-.78-2.38-.49-.55-1.18-.83-2.06-.83s-1.61,.28-2.15,.84Z"/></g><path class="cls-5" d="M52.7,297.86c0,24,19.45,43.45,43.45,43.45h187.17c24,0,43.45-19.45,43.45-43.45s-19.45-43.45-43.45-43.45H96.15c-24,0-43.45,19.45-43.45,43.45,0,0,0-24,0,0Z"/><g><path d="M106.15,291.11c-1.02-.61-1.81-1.48-2.36-2.62-.55-1.14-.83-2.49-.83-4.04s.28-2.88,.83-4.02c.55-1.14,1.34-2.02,2.36-2.62,1.02-.61,2.23-.91,3.63-.91,.94,0,1.82,.15,2.66,.45,.83,.3,1.56,.73,2.17,1.29,.22,.21,.34,.46,.34,.73,0,.2-.06,.37-.17,.51-.11,.15-.25,.22-.4,.22-.17,0-.37-.08-.61-.23-.71-.56-1.36-.95-1.94-1.18-.58-.22-1.25-.34-2.01-.34-1.62,0-2.87,.53-3.75,1.59s-1.31,2.56-1.31,4.5,.44,3.47,1.31,4.53c.88,1.06,2.12,1.59,3.75,1.59,.74,0,1.41-.11,2-.34,.59-.22,1.24-.62,1.95-1.18,.24-.15,.44-.23,.61-.23,.15,0,.29,.07,.4,.21,.11,.14,.17,.31,.17,.52,0,.28-.11,.52-.34,.73-.62,.56-1.34,.99-2.17,1.29-.83,.3-1.72,.45-2.66,.45-1.4,0-2.61-.3-3.63-.91Z"/><path d="M123.42,282.13c0,.22-.06,.4-.19,.54-.13,.13-.34,.21-.65,.24l-.63,.06c-.94,.08-1.63,.42-2.09,1-.46,.58-.68,1.26-.68,2.05v5.1c0,.28-.08,.49-.23,.63-.15,.14-.36,.21-.61,.21s-.46-.07-.62-.22c-.16-.15-.24-.35-.24-.62v-8.86c0-.27,.08-.47,.25-.62s.37-.22,.61-.22c.22,0,.41,.07,.57,.22,.15,.15,.23,.35,.23,.6v1.18c.29-.62,.71-1.08,1.25-1.41,.54-.32,1.16-.51,1.86-.57l.29-.02c.59-.04,.88,.2,.88,.71Z"/><path d="M132.99,289.67c.11,.13,.17,.29,.17,.48,0,.35-.25,.67-.73,.97-.5,.29-1.04,.51-1.6,.66-.56,.15-1.11,.22-1.64,.22-1.58,0-2.83-.47-3.75-1.41s-1.38-2.23-1.38-3.89c0-1.05,.2-1.98,.61-2.78,.41-.8,.98-1.43,1.71-1.88,.73-.45,1.57-.67,2.51-.67,1.33,0,2.39,.43,3.17,1.3s1.18,2.04,1.18,3.53c0,.28-.06,.48-.17,.61-.11,.13-.29,.19-.55,.19h-6.76c.13,2.41,1.27,3.61,3.42,3.61,.55,0,1.02-.07,1.41-.22,.39-.15,.81-.35,1.26-.6,.36-.21,.61-.31,.74-.31,.15,0,.29,.06,.4,.19Zm-6.23-6.13c-.54,.56-.86,1.35-.96,2.37h5.94c-.03-1.04-.29-1.83-.78-2.38-.49-.55-1.18-.83-2.06-.83s-1.61,.28-2.15,.84Z"/><path d="M143.77,285.41v5.71c0,.25-.07,.46-.22,.61s-.35,.23-.6,.23-.46-.08-.61-.23c-.15-.15-.23-.36-.23-.61v-1.01c-.27,.6-.67,1.07-1.22,1.4-.55,.33-1.18,.49-1.89,.49-.66,0-1.26-.13-1.82-.4-.55-.27-.99-.64-1.31-1.11-.32-.48-.48-1-.48-1.57,0-.77,.2-1.37,.59-1.8,.39-.43,1.04-.74,1.93-.92s2.14-.28,3.74-.28h.46v-.69c0-.84-.17-1.46-.51-1.85s-.9-.59-1.67-.59c-.95,0-1.92,.26-2.9,.78-.38,.24-.64,.36-.8,.36-.17,0-.31-.06-.42-.19-.11-.13-.17-.29-.17-.48s.06-.37,.18-.51c.12-.15,.31-.3,.58-.45,.49-.28,1.05-.5,1.67-.66,.62-.16,1.24-.24,1.86-.24,2.56,0,3.84,1.34,3.84,4.03Zm-2.47,4.4c.54-.57,.81-1.3,.81-2.19v-.61h-.38c-1.23,0-2.17,.05-2.81,.16-.64,.1-1.1,.28-1.38,.52-.27,.25-.41,.61-.41,1.08,0,.55,.2,1,.6,1.35s.9,.54,1.5,.54c.84,0,1.53-.28,2.07-.85Z"/><path d="M152.33,291.29c0,.24-.09,.42-.26,.54-.18,.12-.44,.16-.79,.14l-.57-.04c-1.12-.08-1.95-.42-2.48-1.01-.53-.59-.8-1.48-.8-2.67v-5.27h-1.41c-.24,0-.42-.06-.56-.18-.13-.12-.2-.28-.2-.47,0-.21,.07-.38,.2-.5,.13-.13,.32-.19,.56-.19h1.41v-2.37c0-.27,.08-.47,.23-.62,.15-.15,.36-.22,.63-.22,.25,0,.46,.07,.61,.22,.15,.15,.23,.35,.23,.62v2.37h2.33c.22,0,.4,.06,.54,.19,.13,.13,.2,.29,.2,.5,0,.2-.07,.35-.2,.47-.13,.12-.31,.18-.54,.18h-2.33v5.35c0,.77,.16,1.33,.47,1.67,.31,.34,.79,.54,1.42,.58l.57,.04c.49,.04,.74,.27,.74,.67Z"/><path d="M162.33,289.67c.11,.13,.17,.29,.17,.48,0,.35-.25,.67-.73,.97-.5,.29-1.04,.51-1.6,.66-.56,.15-1.11,.22-1.64,.22-1.58,0-2.83-.47-3.75-1.41s-1.38-2.23-1.38-3.89c0-1.05,.2-1.98,.61-2.78,.41-.8,.98-1.43,1.71-1.88,.73-.45,1.57-.67,2.51-.67,1.33,0,2.39,.43,3.17,1.3s1.18,2.04,1.18,3.53c0,.28-.06,.48-.17,.61-.11,.13-.29,.19-.55,.19h-6.76c.13,2.41,1.27,3.61,3.42,3.61,.55,0,1.02-.07,1.41-.22,.39-.15,.81-.35,1.26-.6,.36-.21,.61-.31,.74-.31,.15,0,.29,.06,.4,.19Zm-6.23-6.13c-.54,.56-.86,1.35-.96,2.37h5.94c-.03-1.04-.29-1.83-.78-2.38-.49-.55-1.18-.83-2.06-.83s-1.61,.28-2.15,.84Z"/><path d="M183.58,291.23c0,.21-.08,.39-.24,.52-.16,.14-.35,.21-.58,.21-.35,0-.6-.17-.73-.5l-1.49-3.4h-7.92l-1.51,3.4c-.14,.34-.39,.5-.73,.5-.22,0-.42-.07-.59-.22-.17-.15-.25-.33-.25-.54,0-.11,.03-.22,.08-.34l6.01-13.36c.08-.2,.21-.34,.38-.44,.17-.1,.35-.15,.55-.15,.21,0,.4,.05,.57,.16s.29,.25,.38,.43l6.01,13.36c.06,.11,.08,.23,.08,.36Zm-3.68-4.6l-3.34-7.54-3.32,7.54h6.66Z"/><path d="M187.25,291.77c-.58-.15-1.1-.37-1.54-.65-.25-.17-.43-.33-.54-.47s-.16-.33-.16-.54c0-.18,.05-.33,.16-.45s.24-.18,.41-.18,.41,.1,.73,.31c.42,.25,.84,.45,1.25,.6,.41,.15,.93,.22,1.54,.22,.76,0,1.34-.13,1.76-.4,.42-.27,.63-.65,.63-1.15,0-.31-.08-.56-.23-.75-.15-.19-.42-.36-.8-.5-.38-.15-.93-.3-1.66-.45-1.23-.27-2.11-.62-2.65-1.07-.53-.45-.8-1.06-.8-1.83,0-.6,.17-1.13,.5-1.6,.34-.46,.8-.83,1.4-1.09,.59-.27,1.27-.4,2.03-.4,.55,0,1.07,.07,1.59,.22,.51,.15,.96,.35,1.35,.62,.48,.34,.71,.69,.71,1.05,0,.18-.06,.34-.17,.46-.11,.13-.25,.19-.4,.19-.17,0-.42-.12-.76-.36-.39-.25-.76-.45-1.11-.59s-.78-.21-1.3-.21c-.66,0-1.19,.15-1.59,.44s-.6,.69-.6,1.18c0,.31,.07,.56,.22,.75s.39,.36,.73,.5c.34,.15,.84,.29,1.48,.43,.95,.21,1.69,.44,2.22,.69,.53,.25,.9,.56,1.12,.92,.22,.36,.34,.83,.34,1.39,0,.88-.37,1.59-1.11,2.13-.74,.54-1.72,.81-2.94,.81-.64,0-1.26-.08-1.84-.23Z"/><path d="M197.32,291.77c-.58-.15-1.1-.37-1.54-.65-.25-.17-.43-.33-.54-.47s-.16-.33-.16-.54c0-.18,.05-.33,.16-.45s.24-.18,.41-.18,.41,.1,.73,.31c.42,.25,.84,.45,1.25,.6,.41,.15,.93,.22,1.54,.22,.76,0,1.34-.13,1.76-.4,.42-.27,.63-.65,.63-1.15,0-.31-.08-.56-.23-.75-.15-.19-.42-.36-.8-.5-.38-.15-.93-.3-1.66-.45-1.23-.27-2.11-.62-2.65-1.07-.53-.45-.8-1.06-.8-1.83,0-.6,.17-1.13,.5-1.6,.34-.46,.8-.83,1.4-1.09,.59-.27,1.27-.4,2.03-.4,.55,0,1.07,.07,1.59,.22,.51,.15,.96,.35,1.35,.62,.48,.34,.71,.69,.71,1.05,0,.18-.06,.34-.17,.46-.11,.13-.25,.19-.4,.19-.17,0-.42-.12-.76-.36-.39-.25-.76-.45-1.11-.59s-.78-.21-1.3-.21c-.66,0-1.19,.15-1.59,.44s-.6,.69-.6,1.18c0,.31,.07,.56,.22,.75s.39,.36,.73,.5c.34,.15,.84,.29,1.48,.43,.95,.21,1.69,.44,2.22,.69,.53,.25,.9,.56,1.12,.92,.22,.36,.34,.83,.34,1.39,0,.88-.37,1.59-1.11,2.13-.74,.54-1.72,.81-2.94,.81-.64,0-1.26-.08-1.84-.23Z"/><path d="M207.49,291.35c-.74-.43-1.3-1.05-1.7-1.86s-.6-1.74-.6-2.8,.2-2,.6-2.8c.4-.8,.97-1.42,1.7-1.86,.73-.43,1.59-.65,2.55-.65s1.82,.22,2.56,.65c.74,.43,1.31,1.05,1.71,1.86,.4,.81,.6,1.74,.6,2.8s-.2,2-.6,2.8-.97,1.42-1.71,1.86-1.6,.65-2.56,.65-1.82-.22-2.55-.65Zm4.87-1.75c.54-.67,.81-1.63,.81-2.91s-.27-2.21-.82-2.89c-.55-.68-1.32-1.02-2.31-1.02s-1.76,.34-2.31,1.02c-.55,.68-.82,1.64-.82,2.89s.27,2.23,.81,2.9c.54,.67,1.31,1.01,2.32,1.01s1.78-.33,2.32-1Z"/><path d="M219.14,291.35c-.74-.43-1.3-1.05-1.7-1.85s-.6-1.72-.6-2.77,.21-1.98,.62-2.79c.41-.81,.99-1.44,1.73-1.89,.74-.45,1.6-.67,2.56-.67,.53,0,1.06,.07,1.59,.22,.53,.15,.98,.36,1.38,.64,.25,.17,.43,.33,.54,.49,.1,.16,.16,.34,.16,.54s-.05,.36-.16,.48-.24,.19-.41,.19c-.1,0-.2-.03-.31-.08-.11-.06-.21-.11-.28-.17-.08-.06-.13-.09-.16-.1-.36-.24-.71-.43-1.04-.57s-.73-.21-1.21-.21c-1.02,0-1.82,.35-2.38,1.04-.57,.69-.85,1.66-.85,2.89s.28,2.18,.85,2.86,1.36,1.01,2.38,1.01c.48,0,.89-.07,1.23-.21,.34-.14,.69-.33,1.04-.57,.15-.1,.3-.18,.44-.25,.14-.07,.26-.1,.36-.1,.15,0,.28,.06,.39,.19s.16,.29,.16,.48c0,.18-.05,.35-.15,.49-.1,.15-.28,.31-.55,.49-.39,.27-.86,.48-1.42,.64-.55,.16-1.11,.24-1.67,.24-.95,0-1.8-.22-2.53-.65Z"/><path d="M227.55,278.92c-.21-.2-.32-.45-.32-.78s.11-.56,.32-.76c.21-.2,.48-.29,.82-.29s.61,.1,.82,.29c.21,.2,.31,.45,.31,.76s-.1,.58-.31,.78c-.21,.2-.48,.29-.82,.29s-.61-.1-.82-.29Zm.2,12.82c-.16-.15-.24-.35-.24-.62v-8.86c0-.27,.08-.47,.24-.62,.16-.15,.37-.22,.62-.22s.45,.07,.61,.22c.15,.15,.23,.35,.23,.62v8.86c0,.28-.08,.49-.23,.63-.15,.14-.36,.21-.61,.21s-.46-.07-.62-.22Z"/><path d="M240.41,285.41v5.71c0,.25-.07,.46-.22,.61s-.35,.23-.6,.23-.46-.08-.61-.23c-.15-.15-.23-.36-.23-.61v-1.01c-.27,.6-.67,1.07-1.22,1.4-.55,.33-1.18,.49-1.89,.49-.66,0-1.26-.13-1.82-.4-.55-.27-.99-.64-1.31-1.11-.32-.48-.48-1-.48-1.57,0-.77,.2-1.37,.59-1.8,.39-.43,1.04-.74,1.93-.92s2.14-.28,3.74-.28h.46v-.69c0-.84-.17-1.46-.51-1.85s-.9-.59-1.67-.59c-.95,0-1.92,.26-2.9,.78-.38,.24-.64,.36-.8,.36-.17,0-.31-.06-.42-.19-.11-.13-.17-.29-.17-.48s.06-.37,.18-.51c.12-.15,.31-.3,.58-.45,.49-.28,1.05-.5,1.67-.66,.62-.16,1.24-.24,1.86-.24,2.56,0,3.84,1.34,3.84,4.03Zm-2.47,4.4c.54-.57,.81-1.3,.81-2.19v-.61h-.38c-1.23,0-2.17,.05-2.81,.16-.64,.1-1.1,.28-1.38,.52-.27,.25-.41,.61-.41,1.08,0,.55,.2,1,.6,1.35s.9,.54,1.5,.54c.84,0,1.53-.28,2.07-.85Z"/><path d="M248.97,291.29c0,.24-.09,.42-.26,.54-.18,.12-.44,.16-.79,.14l-.57-.04c-1.12-.08-1.95-.42-2.48-1.01-.53-.59-.8-1.48-.8-2.67v-5.27h-1.41c-.24,0-.42-.06-.56-.18-.13-.12-.2-.28-.2-.47,0-.21,.07-.38,.2-.5,.13-.13,.32-.19,.56-.19h1.41v-2.37c0-.27,.08-.47,.23-.62,.15-.15,.36-.22,.63-.22,.25,0,.46,.07,.61,.22,.15,.15,.23,.35,.23,.62v2.37h2.33c.22,0,.4,.06,.54,.19,.13,.13,.2,.29,.2,.5,0,.2-.07,.35-.2,.47-.13,.12-.31,.18-.54,.18h-2.33v5.35c0,.77,.16,1.33,.47,1.67,.31,.34,.79,.54,1.42,.58l.57,.04c.49,.04,.74,.27,.74,.67Z"/><path d="M258.97,289.67c.11,.13,.17,.29,.17,.48,0,.35-.25,.67-.73,.97-.5,.29-1.04,.51-1.6,.66-.56,.15-1.11,.22-1.64,.22-1.58,0-2.83-.47-3.75-1.41s-1.38-2.23-1.38-3.89c0-1.05,.2-1.98,.61-2.78,.41-.8,.98-1.43,1.71-1.88,.73-.45,1.57-.67,2.51-.67,1.33,0,2.39,.43,3.17,1.3s1.18,2.04,1.18,3.53c0,.28-.06,.48-.17,.61-.11,.13-.29,.19-.55,.19h-6.76c.13,2.41,1.27,3.61,3.42,3.61,.55,0,1.02-.07,1.41-.22,.39-.15,.81-.35,1.26-.6,.36-.21,.61-.31,.74-.31,.15,0,.29,.06,.4,.19Zm-6.23-6.13c-.54,.56-.86,1.35-.96,2.37h5.94c-.03-1.04-.29-1.83-.78-2.38-.49-.55-1.18-.83-2.06-.83s-1.61,.28-2.15,.84Z"/><path d="M270.56,277.18c.15,.15,.23,.35,.23,.59v13.36c0,.25-.08,.46-.23,.61-.15,.15-.36,.23-.63,.23s-.47-.08-.62-.23-.22-.36-.22-.61v-1.13c-.31,.64-.76,1.14-1.35,1.49-.6,.35-1.29,.52-2.09,.52-.9,0-1.69-.22-2.37-.67-.69-.45-1.22-1.07-1.6-1.88-.38-.81-.57-1.74-.57-2.8s.19-1.97,.57-2.77c.38-.8,.91-1.41,1.6-1.85,.69-.43,1.48-.65,2.37-.65,.8,0,1.49,.18,2.09,.52,.6,.35,1.05,.85,1.35,1.49v-5.63c0-.25,.07-.45,.22-.6s.35-.22,.62-.22,.48,.08,.63,.23Zm-2.28,12.4c.54-.68,.81-1.64,.81-2.89s-.27-2.21-.81-2.88c-.54-.67-1.31-1.01-2.3-1.01s-1.77,.34-2.32,1.01c-.55,.67-.83,1.62-.83,2.83s.28,2.22,.83,2.91c.55,.69,1.33,1.04,2.32,1.04s1.76-.34,2.3-1.02Z"/><path d="M144.67,316.82c-.16-.15-.24-.36-.24-.61v-13.12c0-.25,.08-.46,.24-.61,.16-.15,.37-.23,.64-.23h7.85c.25,0,.45,.06,.59,.19s.21,.3,.21,.53-.07,.4-.21,.52-.34,.19-.59,.19h-7.04v5.15h6.62c.25,0,.45,.06,.59,.19,.14,.13,.21,.3,.21,.52s-.07,.4-.21,.52c-.14,.13-.34,.19-.59,.19h-6.62v5.38h7.04c.25,0,.45,.06,.59,.18,.14,.12,.21,.3,.21,.54,0,.22-.07,.4-.21,.52s-.34,.19-.59,.19h-7.85c-.27,0-.48-.08-.64-.23Z"/><path d="M165.22,310.63v5.69c0,.27-.07,.47-.22,.62-.15,.15-.35,.22-.62,.22s-.48-.07-.63-.22c-.15-.15-.23-.35-.23-.62v-5.59c0-.95-.19-1.65-.56-2.08-.37-.43-.96-.65-1.77-.65-.94,0-1.69,.29-2.25,.86-.56,.57-.84,1.35-.84,2.33v5.12c0,.27-.07,.47-.22,.62-.15,.15-.35,.22-.62,.22s-.48-.07-.63-.22c-.15-.15-.23-.35-.23-.62v-8.86c0-.25,.08-.45,.23-.61s.36-.23,.63-.23c.25,0,.45,.08,.6,.23,.15,.15,.22,.35,.22,.59v1.07c.34-.63,.81-1.11,1.41-1.44,.6-.33,1.29-.49,2.06-.49,2.45,0,3.67,1.35,3.67,4.05Z"/><path d="M177.16,302.38c.15,.15,.23,.35,.23,.59v13.36c0,.25-.08,.46-.23,.61-.15,.15-.36,.23-.63,.23s-.47-.08-.62-.23-.22-.36-.22-.61v-1.13c-.31,.64-.76,1.14-1.35,1.49-.6,.35-1.29,.52-2.09,.52-.9,0-1.69-.22-2.37-.67-.69-.45-1.22-1.07-1.6-1.88-.38-.81-.57-1.74-.57-2.8s.19-1.97,.57-2.77c.38-.8,.91-1.41,1.6-1.85,.69-.43,1.48-.65,2.37-.65,.8,0,1.49,.18,2.09,.52,.6,.35,1.05,.85,1.35,1.49v-5.63c0-.25,.07-.45,.22-.6s.35-.22,.62-.22,.48,.08,.63,.23Zm-2.28,12.4c.54-.68,.81-1.64,.81-2.89s-.27-2.21-.81-2.88c-.54-.67-1.31-1.01-2.3-1.01s-1.77,.34-2.32,1.01c-.55,.67-.83,1.62-.83,2.83s.28,2.22,.83,2.91c.55,.69,1.33,1.04,2.32,1.04s1.76-.34,2.3-1.02Z"/><path d="M188.06,307.25c.69,.45,1.22,1.07,1.6,1.88,.38,.81,.57,1.74,.57,2.8s-.19,1.99-.57,2.78-.91,1.4-1.59,1.84c-.68,.43-1.47,.65-2.38,.65-.8,0-1.49-.17-2.09-.52-.6-.35-1.05-.85-1.35-1.49v4.94c0,.25-.07,.45-.22,.6s-.35,.22-.62,.22-.48-.08-.63-.23c-.15-.15-.23-.35-.23-.59v-12.66c0-.25,.08-.45,.23-.61s.36-.23,.63-.23,.47,.08,.62,.23c.15,.15,.22,.36,.22,.61v1.13c.31-.64,.76-1.14,1.35-1.49,.6-.35,1.29-.52,2.09-.52,.9,0,1.69,.22,2.37,.67Zm-.4,7.54c.55-.67,.82-1.62,.82-2.86s-.27-2.19-.82-2.89c-.55-.69-1.32-1.04-2.31-1.04s-1.76,.34-2.3,1.01c-.54,.67-.81,1.63-.81,2.88s.27,2.21,.81,2.89c.54,.68,1.31,1.02,2.3,1.02s1.76-.34,2.31-1.01Z"/><path d="M194.46,316.55c-.74-.43-1.3-1.05-1.7-1.86s-.6-1.74-.6-2.8,.2-2,.6-2.8c.4-.8,.97-1.42,1.7-1.86,.73-.43,1.59-.65,2.55-.65s1.82,.22,2.56,.65c.74,.43,1.31,1.05,1.71,1.86,.4,.81,.6,1.74,.6,2.8s-.2,2-.6,2.8-.97,1.42-1.71,1.86-1.6,.65-2.56,.65-1.82-.22-2.55-.65Zm4.87-1.75c.54-.67,.81-1.63,.81-2.91s-.27-2.21-.82-2.89c-.55-.68-1.32-1.02-2.31-1.02s-1.76,.34-2.31,1.02c-.55,.68-.82,1.64-.82,2.89s.27,2.23,.81,2.9c.54,.67,1.31,1.01,2.32,1.01s1.78-.33,2.32-1Z"/><path d="M204.46,304.12c-.21-.2-.32-.45-.32-.78s.11-.56,.32-.76c.21-.2,.48-.29,.82-.29s.61,.1,.82,.29c.21,.2,.31,.45,.31,.76s-.1,.58-.31,.78c-.21,.2-.48,.29-.82,.29s-.61-.1-.82-.29Zm.2,12.82c-.16-.15-.24-.35-.24-.62v-8.86c0-.27,.08-.47,.24-.62,.16-.15,.37-.22,.62-.22s.45,.07,.61,.22c.15,.15,.23,.35,.23,.62v8.86c0,.28-.08,.49-.23,.63-.15,.14-.36,.21-.61,.21s-.46-.07-.62-.22Z"/><path d="M218.11,310.63v5.69c0,.27-.07,.47-.22,.62-.15,.15-.35,.22-.62,.22s-.48-.07-.63-.22c-.15-.15-.23-.35-.23-.62v-5.59c0-.95-.19-1.65-.56-2.08-.37-.43-.96-.65-1.77-.65-.94,0-1.69,.29-2.25,.86-.56,.57-.84,1.35-.84,2.33v5.12c0,.27-.07,.47-.22,.62-.15,.15-.35,.22-.62,.22s-.48-.07-.63-.22c-.15-.15-.23-.35-.23-.62v-8.86c0-.25,.08-.45,.23-.61s.36-.23,.63-.23c.25,0,.45,.08,.6,.23,.15,.15,.22,.35,.22,.59v1.07c.34-.63,.81-1.11,1.41-1.44,.6-.33,1.29-.49,2.06-.49,2.45,0,3.67,1.35,3.67,4.05Z"/><path d="M226.68,316.49c0,.24-.09,.42-.26,.54-.18,.12-.44,.16-.79,.14l-.57-.04c-1.12-.08-1.95-.42-2.48-1.01-.53-.59-.8-1.48-.8-2.67v-5.27h-1.41c-.24,0-.42-.06-.56-.18-.13-.12-.2-.28-.2-.47,0-.21,.07-.38,.2-.5,.13-.13,.32-.19,.56-.19h1.41v-2.37c0-.27,.08-.47,.23-.62,.15-.15,.36-.22,.63-.22,.25,0,.46,.07,.61,.22,.15,.15,.23,.35,.23,.62v2.37h2.33c.22,0,.4,.06,.54,.19,.13,.13,.2,.29,.2,.5,0,.2-.07,.35-.2,.47-.13,.12-.31,.18-.54,.18h-2.33v5.35c0,.77,.16,1.33,.47,1.67,.31,.34,.79,.54,1.42,.58l.57,.04c.49,.04,.74,.27,.74,.67Z"/><path d="M229.97,316.97c-.58-.15-1.1-.37-1.54-.65-.25-.17-.43-.33-.54-.47s-.16-.33-.16-.54c0-.18,.05-.33,.16-.45s.24-.18,.41-.18,.41,.1,.73,.31c.42,.25,.84,.45,1.25,.6,.41,.15,.93,.22,1.54,.22,.76,0,1.34-.13,1.76-.4,.42-.27,.63-.65,.63-1.15,0-.31-.08-.56-.23-.75-.15-.19-.42-.36-.8-.5-.38-.15-.93-.3-1.66-.45-1.23-.27-2.11-.62-2.65-1.07-.53-.45-.8-1.06-.8-1.83,0-.6,.17-1.13,.5-1.6,.34-.46,.8-.83,1.4-1.09,.59-.27,1.27-.4,2.03-.4,.55,0,1.07,.07,1.59,.22,.51,.15,.96,.35,1.35,.62,.48,.34,.71,.69,.71,1.05,0,.18-.06,.34-.17,.46-.11,.13-.25,.19-.4,.19-.17,0-.42-.12-.76-.36-.39-.25-.76-.45-1.11-.59s-.78-.21-1.3-.21c-.66,0-1.19,.15-1.59,.44s-.6,.69-.6,1.18c0,.31,.07,.56,.22,.75s.39,.36,.73,.5c.34,.15,.84,.29,1.48,.43,.95,.21,1.69,.44,2.22,.69,.53,.25,.9,.56,1.12,.92,.22,.36,.34,.83,.34,1.39,0,.88-.37,1.59-1.11,2.13-.74,.54-1.72,.81-2.94,.81-.64,0-1.26-.08-1.84-.23Z"/></g><path class="cls-5" d="M416.49,297.86c0,24,19.45,43.45,43.45,43.45h187.17c24,0,43.45-19.45,43.45-43.45s-19.45-43.45-43.45-43.45h-187.17c-24,0-43.45,19.45-43.45,43.45,0,0,0-24,0,0Z"/><g><path d="M442.4,305.51c-.15-.16-.23-.37-.23-.64v-13.25c0-.27,.08-.48,.23-.64,.15-.16,.36-.24,.63-.24s.48,.08,.63,.24c.15,.16,.23,.37,.23,.64v13.25c0,.27-.08,.48-.23,.64-.15,.16-.36,.24-.63,.24s-.48-.08-.63-.24Z"/><path d="M456.11,299.22v5.69c0,.27-.07,.47-.22,.62-.15,.15-.35,.22-.62,.22s-.48-.07-.63-.22c-.15-.15-.23-.35-.23-.62v-5.59c0-.95-.19-1.65-.56-2.08-.37-.43-.96-.65-1.77-.65-.94,0-1.69,.29-2.25,.86-.56,.57-.84,1.35-.84,2.33v5.12c0,.27-.07,.47-.22,.62-.15,.15-.35,.22-.62,.22s-.48-.07-.63-.22c-.15-.15-.23-.35-.23-.62v-8.86c0-.25,.08-.45,.23-.61s.36-.23,.63-.23c.25,0,.45,.08,.6,.23,.15,.15,.22,.35,.22,.59v1.07c.34-.63,.81-1.11,1.41-1.44,.6-.33,1.29-.49,2.06-.49,2.45,0,3.67,1.35,3.67,4.05Z"/><path d="M456.31,309.34c-.17-.12-.26-.3-.26-.54,0-.38,.25-.6,.74-.65l.59-.04c.63-.04,1.1-.23,1.4-.57,.3-.34,.45-.89,.45-1.66v-9.83c0-.27,.08-.47,.24-.62,.16-.15,.37-.22,.62-.22s.45,.07,.61,.22c.15,.15,.23,.35,.23,.62v9.72c0,1.18-.26,2.06-.79,2.65-.52,.59-1.34,.92-2.45,1.01l-.59,.04c-.35,.03-.61-.02-.79-.14Zm2.95-16.62c-.21-.2-.32-.45-.32-.78s.11-.56,.32-.76c.21-.2,.48-.29,.82-.29s.61,.1,.82,.29c.21,.2,.31,.45,.31,.76s-.1,.58-.31,.78c-.21,.2-.48,.29-.82,.29s-.61-.1-.82-.29Z"/><path d="M472.41,303.47c.11,.13,.17,.29,.17,.48,0,.35-.25,.67-.73,.97-.5,.29-1.04,.51-1.6,.66-.56,.15-1.11,.22-1.64,.22-1.58,0-2.83-.47-3.75-1.41s-1.38-2.23-1.38-3.89c0-1.05,.2-1.98,.61-2.78,.41-.8,.98-1.43,1.71-1.88,.73-.45,1.57-.67,2.51-.67,1.33,0,2.39,.43,3.17,1.3s1.18,2.04,1.18,3.53c0,.28-.06,.48-.17,.61-.11,.13-.29,.19-.55,.19h-6.76c.13,2.41,1.27,3.61,3.42,3.61,.55,0,1.02-.07,1.41-.22,.39-.15,.81-.35,1.26-.6,.36-.21,.61-.31,.74-.31,.15,0,.29,.06,.4,.19Zm-6.23-6.13c-.54,.56-.86,1.35-.96,2.37h5.94c-.03-1.04-.29-1.83-.78-2.38-.49-.55-1.18-.83-2.06-.83s-1.61,.28-2.15,.84Z"/><path d="M476.85,305.15c-.74-.43-1.3-1.05-1.7-1.85s-.6-1.72-.6-2.77,.21-1.98,.62-2.79c.41-.81,.99-1.44,1.73-1.89,.74-.45,1.6-.67,2.56-.67,.53,0,1.06,.07,1.59,.22,.53,.15,.98,.36,1.38,.64,.25,.17,.43,.33,.54,.49,.1,.16,.16,.34,.16,.54s-.05,.36-.16,.48-.24,.19-.41,.19c-.1,0-.2-.03-.31-.08-.11-.06-.21-.11-.28-.17-.08-.06-.13-.09-.16-.1-.36-.24-.71-.43-1.04-.57s-.73-.21-1.21-.21c-1.02,0-1.82,.35-2.38,1.04-.57,.69-.85,1.66-.85,2.89s.28,2.18,.85,2.86,1.36,1.01,2.38,1.01c.48,0,.89-.07,1.23-.21,.34-.14,.69-.33,1.04-.57,.15-.1,.3-.18,.44-.25,.14-.07,.26-.1,.36-.1,.15,0,.28,.06,.39,.19s.16,.29,.16,.48c0,.18-.05,.35-.15,.49-.1,.15-.28,.31-.55,.49-.39,.27-.86,.48-1.42,.64-.55,.16-1.11,.24-1.67,.24-.95,0-1.8-.22-2.53-.65Z"/><path d="M490.7,305.08c0,.24-.09,.42-.26,.54-.18,.12-.44,.16-.79,.14l-.57-.04c-1.12-.08-1.95-.42-2.48-1.01-.53-.59-.8-1.48-.8-2.67v-5.27h-1.41c-.24,0-.42-.06-.56-.18-.13-.12-.2-.28-.2-.47,0-.21,.07-.38,.2-.5,.13-.13,.32-.19,.56-.19h1.41v-2.37c0-.27,.08-.47,.23-.62,.15-.15,.36-.22,.63-.22,.25,0,.46,.07,.61,.22,.15,.15,.23,.35,.23,.62v2.37h2.33c.22,0,.4,.06,.54,.19,.13,.13,.2,.29,.2,.5,0,.2-.07,.35-.2,.47-.13,.12-.31,.18-.54,.18h-2.33v5.35c0,.77,.16,1.33,.47,1.67,.31,.34,.79,.54,1.42,.58l.57,.04c.49,.04,.74,.27,.74,.67Z"/><path d="M511.81,290.98c.15,.16,.22,.37,.22,.64v13.29c0,.25-.07,.46-.21,.61-.14,.15-.34,.23-.59,.23s-.44-.08-.57-.23c-.13-.15-.19-.36-.19-.61v-10.73l-4.56,8.74c-.2,.41-.48,.61-.86,.61s-.65-.2-.86-.61l-4.58-8.63v10.63c0,.25-.07,.46-.2,.61-.13,.15-.33,.23-.58,.23s-.45-.08-.59-.23c-.14-.15-.21-.36-.21-.61v-13.29c0-.27,.08-.48,.23-.64,.15-.16,.36-.24,.63-.24,.35,0,.63,.2,.84,.61l5.33,10.23,5.27-10.23c.11-.22,.23-.38,.37-.47,.13-.09,.29-.14,.47-.14,.27,0,.47,.08,.62,.24Z"/><path d="M517.15,305.15c-.74-.43-1.3-1.05-1.7-1.86s-.6-1.74-.6-2.8,.2-2,.6-2.8c.4-.8,.97-1.42,1.7-1.86,.73-.43,1.59-.65,2.55-.65s1.82,.22,2.56,.65c.74,.43,1.31,1.05,1.71,1.86,.4,.81,.6,1.74,.6,2.8s-.2,2-.6,2.8-.97,1.42-1.71,1.86-1.6,.65-2.56,.65-1.82-.22-2.55-.65Zm4.87-1.75c.54-.67,.81-1.63,.81-2.91s-.27-2.21-.82-2.89c-.55-.68-1.32-1.02-2.31-1.02s-1.76,.34-2.31,1.02c-.55,.68-.82,1.64-.82,2.89s.27,2.23,.81,2.9c.54,.67,1.31,1.01,2.32,1.01s1.78-.33,2.32-1Z"/><path d="M535.95,290.97c.15,.15,.23,.35,.23,.59v13.36c0,.25-.08,.46-.23,.61-.15,.15-.36,.23-.63,.23s-.47-.08-.62-.23-.22-.36-.22-.61v-1.13c-.31,.64-.76,1.14-1.35,1.49-.6,.35-1.29,.52-2.09,.52-.9,0-1.69-.22-2.37-.67-.69-.45-1.22-1.07-1.6-1.88-.38-.81-.57-1.74-.57-2.8s.19-1.97,.57-2.77c.38-.8,.91-1.41,1.6-1.85,.69-.43,1.48-.65,2.37-.65,.8,0,1.49,.18,2.09,.52,.6,.35,1.05,.85,1.35,1.49v-5.63c0-.25,.07-.45,.22-.6s.35-.22,.62-.22,.48,.08,.63,.23Zm-2.28,12.4c.54-.68,.81-1.64,.81-2.89s-.27-2.21-.81-2.88c-.54-.67-1.31-1.01-2.3-1.01s-1.77,.34-2.32,1.01c-.55,.67-.83,1.62-.83,2.83s.28,2.22,.83,2.91c.55,.69,1.33,1.04,2.32,1.04s1.76-.34,2.3-1.02Z"/><path d="M547.65,303.47c.11,.13,.17,.29,.17,.48,0,.35-.25,.67-.73,.97-.5,.29-1.04,.51-1.6,.66-.56,.15-1.11,.22-1.64,.22-1.58,0-2.83-.47-3.75-1.41s-1.38-2.23-1.38-3.89c0-1.05,.2-1.98,.61-2.78,.41-.8,.98-1.43,1.71-1.88,.73-.45,1.57-.67,2.51-.67,1.33,0,2.39,.43,3.17,1.3s1.18,2.04,1.18,3.53c0,.28-.06,.48-.17,.61-.11,.13-.29,.19-.55,.19h-6.76c.13,2.41,1.27,3.61,3.42,3.61,.55,0,1.02-.07,1.41-.22,.39-.15,.81-.35,1.26-.6,.36-.21,.61-.31,.74-.31,.15,0,.29,.06,.4,.19Zm-6.23-6.13c-.54,.56-.86,1.35-.96,2.37h5.94c-.03-1.04-.29-1.83-.78-2.38-.49-.55-1.18-.83-2.06-.83s-1.61,.28-2.15,.84Z"/><path d="M550.64,305.53c-.16-.15-.24-.35-.24-.62v-13.33c0-.27,.08-.47,.24-.62,.16-.15,.37-.22,.62-.22,.24,0,.44,.07,.6,.22,.16,.15,.24,.35,.24,.62v13.33c0,.27-.08,.47-.24,.62-.16,.15-.36,.22-.6,.22-.25,0-.46-.07-.62-.22Z"/><path d="M556.92,291.15c.22,.27,.33,.68,.33,1.23,0,1.11-.36,2.04-1.07,2.79-.14,.14-.29,.21-.46,.21-.15,0-.29-.05-.4-.16-.11-.11-.17-.23-.17-.37,0-.15,.06-.29,.17-.4,.36-.36,.59-.83,.69-1.39-.31-.03-.56-.15-.77-.36-.2-.21-.3-.48-.3-.8,0-.35,.11-.63,.33-.85s.49-.33,.81-.33c.35,0,.63,.14,.85,.41Z"/><path d="M561.08,305.57c-.58-.15-1.1-.37-1.54-.65-.25-.17-.43-.33-.54-.47s-.16-.33-.16-.54c0-.18,.05-.33,.16-.45s.24-.18,.41-.18,.41,.1,.73,.31c.42,.25,.84,.45,1.25,.6,.41,.15,.93,.22,1.54,.22,.76,0,1.34-.13,1.76-.4,.42-.27,.63-.65,.63-1.15,0-.31-.08-.56-.23-.75-.15-.19-.42-.36-.8-.5-.38-.15-.93-.3-1.66-.45-1.23-.27-2.11-.62-2.65-1.07-.53-.45-.8-1.06-.8-1.83,0-.6,.17-1.13,.5-1.6,.34-.46,.8-.83,1.4-1.09,.59-.27,1.27-.4,2.03-.4,.55,0,1.07,.07,1.59,.22,.51,.15,.96,.35,1.35,.62,.48,.34,.71,.69,.71,1.05,0,.18-.06,.34-.17,.46-.11,.13-.25,.19-.4,.19-.17,0-.42-.12-.76-.36-.39-.25-.76-.45-1.11-.59s-.78-.21-1.3-.21c-.66,0-1.19,.15-1.59,.44s-.6,.69-.6,1.18c0,.31,.07,.56,.22,.75s.39,.36,.73,.5c.34,.15,.84,.29,1.48,.43,.95,.21,1.69,.44,2.22,.69,.53,.25,.9,.56,1.12,.92,.22,.36,.34,.83,.34,1.39,0,.88-.37,1.59-1.11,2.13-.74,.54-1.72,.81-2.94,.81-.64,0-1.26-.08-1.84-.23Z"/><path d="M594.44,290.86c.14-.09,.29-.14,.46-.14,.22,0,.42,.07,.58,.2,.16,.13,.24,.31,.24,.54,0,.1-.02,.21-.06,.34l-4.75,13.38c-.07,.2-.19,.35-.36,.45-.17,.11-.36,.16-.57,.16-.2,0-.38-.05-.55-.16-.17-.1-.29-.25-.36-.45l-4.12-11.63-4.16,11.63c-.07,.2-.19,.35-.36,.45-.17,.11-.35,.16-.55,.16s-.38-.05-.55-.16c-.17-.1-.29-.25-.36-.45l-4.77-13.38c-.04-.11-.06-.22-.06-.31,0-.22,.09-.41,.26-.55,.17-.14,.37-.21,.6-.21,.17,0,.33,.05,.47,.14,.15,.09,.25,.23,.3,.41l4.14,11.93,4.2-11.8c.07-.21,.18-.37,.34-.47,.15-.1,.32-.16,.5-.16s.35,.06,.5,.17c.15,.11,.27,.27,.34,.48l4.14,11.82,4.18-11.97c.06-.18,.15-.32,.29-.41Z"/><path d="M602.86,295.93c0,.22-.06,.4-.19,.54-.13,.13-.34,.21-.65,.24l-.63,.06c-.94,.08-1.63,.42-2.09,1-.46,.58-.68,1.26-.68,2.05v5.1c0,.28-.08,.49-.23,.63-.15,.14-.36,.21-.61,.21s-.46-.07-.62-.22c-.16-.15-.24-.35-.24-.62v-8.86c0-.27,.08-.47,.25-.62s.37-.22,.61-.22c.22,0,.41,.07,.57,.22,.15,.15,.23,.35,.23,.6v1.18c.29-.62,.71-1.08,1.25-1.41,.54-.32,1.16-.51,1.86-.57l.29-.02c.59-.04,.88,.2,.88,.71Z"/><path d="M612.27,299.2v5.71c0,.25-.07,.46-.22,.61s-.35,.23-.6,.23-.46-.08-.61-.23c-.15-.15-.23-.36-.23-.61v-1.01c-.27,.6-.67,1.07-1.22,1.4-.55,.33-1.18,.49-1.89,.49-.66,0-1.26-.13-1.82-.4-.55-.27-.99-.64-1.31-1.11-.32-.48-.48-1-.48-1.57,0-.77,.2-1.37,.59-1.8,.39-.43,1.04-.74,1.93-.92s2.14-.28,3.74-.28h.46v-.69c0-.84-.17-1.46-.51-1.85s-.9-.59-1.67-.59c-.95,0-1.92,.26-2.9,.78-.38,.24-.64,.36-.8,.36-.17,0-.31-.06-.42-.19-.11-.13-.17-.29-.17-.48s.06-.37,.18-.51c.12-.15,.31-.3,.58-.45,.49-.28,1.05-.5,1.67-.66,.62-.16,1.24-.24,1.86-.24,2.56,0,3.84,1.34,3.84,4.03Zm-2.47,4.4c.54-.57,.81-1.3,.81-2.19v-.61h-.38c-1.23,0-2.17,.05-2.81,.16-.64,.1-1.1,.28-1.38,.52-.27,.25-.41,.61-.41,1.08,0,.55,.2,1,.6,1.35s.9,.54,1.5,.54c.84,0,1.53-.28,2.07-.85Z"/><path d="M622.89,295.84c.69,.45,1.22,1.07,1.6,1.88,.38,.81,.57,1.74,.57,2.8s-.19,1.99-.57,2.78-.91,1.4-1.59,1.84c-.68,.43-1.47,.65-2.38,.65-.8,0-1.49-.17-2.09-.52-.6-.35-1.05-.85-1.35-1.49v4.94c0,.25-.07,.45-.22,.6s-.35,.22-.62,.22-.48-.08-.63-.23c-.15-.15-.23-.35-.23-.59v-12.66c0-.25,.08-.45,.23-.61s.36-.23,.63-.23,.47,.08,.62,.23c.15,.15,.22,.36,.22,.61v1.13c.31-.64,.76-1.14,1.35-1.49,.6-.35,1.29-.52,2.09-.52,.9,0,1.69,.22,2.37,.67Zm-.4,7.54c.55-.67,.82-1.62,.82-2.86s-.27-2.19-.82-2.89c-.55-.69-1.32-1.04-2.31-1.04s-1.76,.34-2.3,1.01c-.54,.67-.81,1.63-.81,2.88s.27,2.21,.81,2.89c.54,.68,1.31,1.02,2.3,1.02s1.76-.34,2.31-1.01Z"/><path d="M635.11,295.84c.69,.45,1.22,1.07,1.6,1.88,.38,.81,.57,1.74,.57,2.8s-.19,1.99-.57,2.78-.91,1.4-1.59,1.84c-.68,.43-1.47,.65-2.38,.65-.8,0-1.49-.17-2.09-.52-.6-.35-1.05-.85-1.35-1.49v4.94c0,.25-.07,.45-.22,.6s-.35,.22-.62,.22-.48-.08-.63-.23c-.15-.15-.23-.35-.23-.59v-12.66c0-.25,.08-.45,.23-.61s.36-.23,.63-.23,.47,.08,.62,.23c.15,.15,.22,.36,.22,.61v1.13c.31-.64,.76-1.14,1.35-1.49,.6-.35,1.29-.52,2.09-.52,.9,0,1.69,.22,2.37,.67Zm-.4,7.54c.55-.67,.82-1.62,.82-2.86s-.27-2.19-.82-2.89c-.55-.69-1.32-1.04-2.31-1.04s-1.76,.34-2.3,1.01c-.54,.67-.81,1.63-.81,2.88s.27,2.21,.81,2.89c.54,.68,1.31,1.02,2.3,1.02s1.76-.34,2.31-1.01Z"/><path d="M648.13,303.47c.11,.13,.17,.29,.17,.48,0,.35-.25,.67-.73,.97-.5,.29-1.04,.51-1.6,.66-.56,.15-1.11,.22-1.64,.22-1.58,0-2.83-.47-3.75-1.41s-1.38-2.23-1.38-3.89c0-1.05,.2-1.98,.61-2.78,.41-.8,.98-1.43,1.71-1.88,.73-.45,1.57-.67,2.51-.67,1.33,0,2.39,.43,3.17,1.3s1.18,2.04,1.18,3.53c0,.28-.06,.48-.17,.61-.11,.13-.29,.19-.55,.19h-6.76c.13,2.41,1.27,3.61,3.42,3.61,.55,0,1.02-.07,1.41-.22,.39-.15,.81-.35,1.26-.6,.36-.21,.61-.31,.74-.31,.15,0,.29,.06,.4,.19Zm-6.23-6.13c-.54,.56-.86,1.35-.96,2.37h5.94c-.03-1.04-.29-1.83-.78-2.38-.49-.55-1.18-.83-2.06-.83s-1.61,.28-2.15,.84Z"/><path d="M656.83,295.93c0,.22-.06,.4-.19,.54-.13,.13-.34,.21-.65,.24l-.63,.06c-.94,.08-1.63,.42-2.09,1-.46,.58-.68,1.26-.68,2.05v5.1c0,.28-.08,.49-.23,.63-.15,.14-.36,.21-.61,.21s-.46-.07-.62-.22c-.16-.15-.24-.35-.24-.62v-8.86c0-.27,.08-.47,.25-.62s.37-.22,.61-.22c.22,0,.41,.07,.57,.22,.15,.15,.23,.35,.23,.6v1.18c.29-.62,.71-1.08,1.25-1.41,.54-.32,1.16-.51,1.86-.57l.29-.02c.59-.04,.88,.2,.88,.71Z"/><path d="M659.8,305.57c-.58-.15-1.1-.37-1.54-.65-.25-.17-.43-.33-.54-.47s-.16-.33-.16-.54c0-.18,.05-.33,.16-.45s.24-.18,.41-.18,.41,.1,.73,.31c.42,.25,.84,.45,1.25,.6,.41,.15,.93,.22,1.54,.22,.76,0,1.34-.13,1.76-.4,.42-.27,.63-.65,.63-1.15,0-.31-.08-.56-.23-.75-.15-.19-.42-.36-.8-.5-.38-.15-.93-.3-1.66-.45-1.23-.27-2.11-.62-2.65-1.07-.53-.45-.8-1.06-.8-1.83,0-.6,.17-1.13,.5-1.6,.34-.46,.8-.83,1.4-1.09,.59-.27,1.27-.4,2.03-.4,.55,0,1.07,.07,1.59,.22,.51,.15,.96,.35,1.35,.62,.48,.34,.71,.69,.71,1.05,0,.18-.06,.34-.17,.46-.11,.13-.25,.19-.4,.19-.17,0-.42-.12-.76-.36-.39-.25-.76-.45-1.11-.59s-.78-.21-1.3-.21c-.66,0-1.19,.15-1.59,.44s-.6,.69-.6,1.18c0,.31,.07,.56,.22,.75s.39,.36,.73,.5c.34,.15,.84,.29,1.48,.43,.95,.21,1.69,.44,2.22,.69,.53,.25,.9,.56,1.12,.92,.22,.36,.34,.83,.34,1.39,0,.88-.37,1.59-1.11,2.13-.74,.54-1.72,.81-2.94,.81-.64,0-1.26-.08-1.84-.23Z"/></g><path class="cls-5" d="M780.27,297.86c0,24,19.45,43.45,43.45,43.45h187.17c24,0,43.45-19.45,43.45-43.45s-19.45-43.45-43.45-43.45h-187.17c-24,0-43.45,19.45-43.45,43.45,0,0,0-24,0,0Z"/><g><path d="M817.36,305.51c-.15-.16-.23-.37-.23-.64v-13.25c0-.27,.08-.48,.23-.64,.15-.16,.36-.24,.63-.24s.48,.08,.63,.24c.15,.16,.23,.37,.23,.64v13.25c0,.27-.08,.48-.23,.64-.15,.16-.36,.24-.63,.24s-.48-.08-.63-.24Z"/><path d="M831.07,299.22v5.69c0,.27-.07,.47-.22,.62-.15,.15-.35,.22-.62,.22s-.48-.07-.63-.22c-.15-.15-.23-.35-.23-.62v-5.59c0-.95-.19-1.65-.56-2.08-.37-.43-.96-.65-1.78-.65-.94,0-1.69,.29-2.25,.86-.56,.57-.84,1.35-.84,2.33v5.12c0,.27-.07,.47-.22,.62-.15,.15-.35,.22-.62,.22s-.48-.07-.63-.22c-.15-.15-.23-.35-.23-.62v-8.86c0-.25,.08-.45,.23-.61,.15-.15,.36-.23,.63-.23,.25,0,.45,.08,.6,.23,.15,.15,.22,.35,.22,.59v1.07c.34-.63,.8-1.11,1.41-1.44,.6-.33,1.29-.49,2.06-.49,2.45,0,3.67,1.35,3.67,4.05Z"/><path d="M834.22,292.71c-.21-.2-.32-.45-.32-.78s.11-.56,.32-.76c.21-.2,.48-.29,.82-.29s.61,.1,.82,.29c.21,.2,.31,.45,.31,.76s-.1,.58-.31,.78c-.21,.2-.48,.29-.82,.29s-.61-.1-.82-.29Zm.2,12.82c-.16-.15-.24-.35-.24-.62v-8.86c0-.27,.08-.47,.24-.62,.16-.15,.37-.22,.62-.22s.46,.07,.61,.22c.15,.15,.23,.35,.23,.62v8.86c0,.28-.08,.49-.23,.63-.15,.14-.36,.21-.61,.21s-.46-.07-.62-.22Z"/><path d="M844.51,305.08c0,.24-.09,.42-.26,.54-.18,.12-.44,.16-.79,.14l-.57-.04c-1.12-.08-1.95-.42-2.48-1.01-.53-.59-.8-1.48-.8-2.67v-5.27h-1.41c-.24,0-.42-.06-.56-.18-.13-.12-.2-.28-.2-.47,0-.21,.07-.38,.2-.5,.13-.13,.32-.19,.56-.19h1.41v-2.37c0-.27,.08-.47,.23-.62,.15-.15,.36-.22,.63-.22,.25,0,.46,.07,.61,.22,.15,.15,.23,.35,.23,.62v2.37h2.33c.22,0,.4,.06,.54,.19s.2,.29,.2,.5c0,.2-.07,.35-.2,.47-.13,.12-.31,.18-.54,.18h-2.33v5.35c0,.77,.16,1.33,.47,1.67,.31,.34,.79,.54,1.42,.58l.57,.04c.49,.04,.74,.27,.74,.67Z"/><path d="M853.57,305.35c-.96-.31-1.73-.74-2.3-1.27-.21-.2-.31-.44-.31-.73,0-.2,.06-.37,.17-.51s.25-.22,.4-.22c.18,0,.38,.08,.59,.23,1.3,1.01,2.79,1.51,4.45,1.51,1.2,0,2.13-.23,2.77-.69,.64-.46,.97-1.12,.97-1.97,0-.49-.15-.89-.46-1.19-.31-.3-.71-.54-1.22-.72s-1.18-.37-2.04-.57c-1.15-.27-2.09-.55-2.82-.84-.74-.29-1.33-.71-1.79-1.26s-.68-1.26-.68-2.14,.23-1.59,.68-2.24c.46-.65,1.09-1.16,1.91-1.51,.82-.36,1.75-.54,2.8-.54,.98,0,1.89,.15,2.74,.45,.85,.3,1.56,.73,2.13,1.29,.22,.22,.34,.47,.34,.73,0,.2-.06,.37-.17,.51-.11,.15-.25,.22-.4,.22s-.36-.08-.61-.23c-.69-.56-1.32-.95-1.91-1.18-.59-.22-1.29-.34-2.12-.34-1.16,0-2.07,.24-2.71,.72-.64,.48-.97,1.16-.97,2.03,0,.74,.28,1.3,.85,1.67,.57,.37,1.44,.7,2.61,.98,1.27,.31,2.28,.59,3,.85,.73,.26,1.33,.65,1.82,1.17,.48,.52,.72,1.21,.72,2.08s-.23,1.55-.68,2.18c-.46,.63-1.1,1.12-1.92,1.47-.83,.35-1.77,.52-2.83,.52s-2.05-.16-3.01-.47Z"/><path d="M872.88,303.47c.11,.13,.17,.29,.17,.48,0,.35-.25,.67-.73,.97-.5,.29-1.04,.51-1.6,.66-.56,.15-1.11,.22-1.64,.22-1.58,0-2.83-.47-3.75-1.41s-1.38-2.23-1.38-3.89c0-1.05,.2-1.98,.61-2.78,.41-.8,.98-1.43,1.71-1.88,.74-.45,1.57-.67,2.51-.67,1.33,0,2.39,.43,3.17,1.3s1.18,2.04,1.18,3.53c0,.28-.06,.48-.17,.61s-.29,.19-.55,.19h-6.76c.13,2.41,1.27,3.61,3.42,3.61,.55,0,1.01-.07,1.41-.22,.39-.15,.81-.35,1.26-.6,.36-.21,.61-.31,.74-.31,.15,0,.29,.06,.4,.19Zm-6.23-6.13c-.54,.56-.86,1.35-.96,2.37h5.94c-.03-1.04-.29-1.83-.78-2.38-.49-.55-1.18-.83-2.06-.83s-1.61,.28-2.15,.84Z"/><path d="M881.57,295.93c0,.22-.06,.4-.19,.54-.13,.13-.34,.21-.65,.24l-.63,.06c-.94,.08-1.63,.42-2.09,1-.46,.58-.68,1.26-.68,2.05v5.1c0,.28-.08,.49-.23,.63s-.36,.21-.61,.21-.46-.07-.62-.22c-.16-.15-.24-.35-.24-.62v-8.86c0-.27,.08-.47,.25-.62s.37-.22,.61-.22c.22,0,.41,.07,.57,.22s.23,.35,.23,.6v1.18c.29-.62,.71-1.08,1.25-1.41,.54-.32,1.16-.51,1.86-.57l.29-.02c.59-.04,.88,.2,.88,.71Z"/><path d="M891.78,295.23c.21,0,.4,.07,.57,.21,.17,.14,.25,.31,.25,.52,0,.13-.03,.24-.08,.34l-4.1,8.82c-.08,.18-.21,.33-.38,.43-.17,.11-.35,.16-.55,.16-.18,0-.36-.05-.52-.16-.17-.1-.3-.25-.4-.43l-4.07-8.82c-.06-.1-.08-.2-.08-.31,0-.21,.09-.39,.28-.55,.19-.15,.39-.23,.62-.23,.14,0,.28,.04,.41,.13s.23,.2,.3,.36l3.51,7.88,3.51-7.83c.15-.34,.4-.5,.74-.5Z"/><path d="M902.66,303.47c.11,.13,.17,.29,.17,.48,0,.35-.25,.67-.73,.97-.5,.29-1.04,.51-1.6,.66-.56,.15-1.11,.22-1.64,.22-1.58,0-2.83-.47-3.75-1.41s-1.38-2.23-1.38-3.89c0-1.05,.2-1.98,.61-2.78,.41-.8,.98-1.43,1.71-1.88,.74-.45,1.57-.67,2.51-.67,1.33,0,2.39,.43,3.17,1.3s1.18,2.04,1.18,3.53c0,.28-.06,.48-.17,.61s-.29,.19-.55,.19h-6.76c.13,2.41,1.27,3.61,3.42,3.61,.55,0,1.01-.07,1.41-.22,.39-.15,.81-.35,1.26-.6,.36-.21,.61-.31,.74-.31,.15,0,.29,.06,.4,.19Zm-6.23-6.13c-.54,.56-.86,1.35-.96,2.37h5.94c-.03-1.04-.29-1.83-.78-2.38-.49-.55-1.18-.83-2.06-.83s-1.61,.28-2.15,.84Z"/><path d="M911.35,295.93c0,.22-.06,.4-.19,.54-.13,.13-.34,.21-.65,.24l-.63,.06c-.94,.08-1.63,.42-2.09,1-.46,.58-.68,1.26-.68,2.05v5.1c0,.28-.08,.49-.23,.63s-.36,.21-.61,.21-.46-.07-.62-.22c-.16-.15-.24-.35-.24-.62v-8.86c0-.27,.08-.47,.25-.62s.37-.22,.61-.22c.22,0,.41,.07,.57,.22s.23,.35,.23,.6v1.18c.29-.62,.71-1.08,1.25-1.41,.54-.32,1.16-.51,1.86-.57l.29-.02c.59-.04,.88,.2,.88,.71Z"/><path d="M920.2,305.35c-.96-.31-1.73-.74-2.3-1.27-.21-.2-.32-.44-.32-.73,0-.2,.06-.37,.17-.51,.11-.15,.25-.22,.4-.22,.18,0,.38,.08,.59,.23,1.3,1.01,2.79,1.51,4.45,1.51,1.2,0,2.13-.23,2.77-.69,.64-.46,.97-1.12,.97-1.97,0-.49-.15-.89-.46-1.19-.31-.3-.71-.54-1.22-.72s-1.18-.37-2.04-.57c-1.15-.27-2.09-.55-2.82-.84-.73-.29-1.33-.71-1.79-1.26s-.68-1.26-.68-2.14,.23-1.59,.68-2.24c.46-.65,1.09-1.16,1.91-1.51,.82-.36,1.75-.54,2.8-.54,.98,0,1.89,.15,2.74,.45,.85,.3,1.56,.73,2.13,1.29,.22,.22,.34,.47,.34,.73,0,.2-.06,.37-.17,.51s-.25,.22-.4,.22-.36-.08-.61-.23c-.69-.56-1.32-.95-1.91-1.18-.59-.22-1.29-.34-2.12-.34-1.16,0-2.07,.24-2.71,.72-.64,.48-.97,1.16-.97,2.03,0,.74,.28,1.3,.85,1.67,.57,.37,1.44,.7,2.61,.98,1.27,.31,2.27,.59,3,.85,.73,.26,1.33,.65,1.82,1.17,.48,.52,.72,1.21,.72,2.08s-.23,1.55-.68,2.18c-.46,.63-1.1,1.12-1.92,1.47-.83,.35-1.77,.52-2.84,.52s-2.05-.16-3.01-.47Z"/><path d="M932.89,305.15c-.74-.43-1.3-1.05-1.7-1.86-.4-.81-.6-1.74-.6-2.8s.2-2,.6-2.8c.4-.8,.97-1.42,1.7-1.86,.73-.43,1.58-.65,2.55-.65s1.82,.22,2.56,.65c.74,.43,1.31,1.05,1.71,1.86,.4,.81,.6,1.74,.6,2.8s-.2,2-.6,2.8c-.4,.81-.97,1.42-1.71,1.86s-1.6,.65-2.56,.65-1.82-.22-2.55-.65Zm4.87-1.75c.54-.67,.81-1.63,.81-2.91s-.27-2.21-.82-2.89c-.55-.68-1.32-1.02-2.31-1.02s-1.76,.34-2.31,1.02c-.55,.68-.82,1.64-.82,2.89s.27,2.23,.81,2.9,1.31,1.01,2.32,1.01,1.78-.33,2.32-1Z"/><path d="M951.24,295.44c.15,.15,.22,.36,.22,.61v8.88c0,.24-.07,.43-.22,.59-.15,.15-.35,.23-.62,.23s-.45-.07-.6-.22c-.15-.15-.22-.34-.22-.58v-1.05c-.32,.62-.77,1.09-1.35,1.41-.58,.32-1.24,.48-1.96,.48-1.22,0-2.13-.34-2.75-1.02-.62-.68-.92-1.68-.92-3.01v-5.71c0-.25,.08-.45,.23-.61,.15-.15,.36-.23,.63-.23s.47,.08,.62,.23c.15,.15,.22,.36,.22,.61v5.67c0,.91,.18,1.58,.55,2.01s.94,.64,1.72,.64c.9,0,1.62-.29,2.16-.87s.82-1.35,.82-2.3v-5.15c0-.25,.08-.45,.23-.61,.15-.15,.36-.23,.63-.23s.47,.08,.62,.23Z"/><path d="M960.57,295.93c0,.22-.06,.4-.19,.54-.13,.13-.34,.21-.65,.24l-.63,.06c-.94,.08-1.63,.42-2.09,1-.46,.58-.68,1.26-.68,2.05v5.1c0,.28-.08,.49-.23,.63-.15,.14-.36,.21-.61,.21s-.46-.07-.62-.22c-.16-.15-.24-.35-.24-.62v-8.86c0-.27,.08-.47,.25-.62s.37-.22,.61-.22c.22,0,.41,.07,.57,.22,.15,.15,.23,.35,.23,.6v1.18c.29-.62,.71-1.08,1.25-1.41,.54-.32,1.16-.51,1.86-.57l.29-.02c.59-.04,.88,.2,.88,.71Z"/><path d="M963.53,305.15c-.74-.43-1.3-1.05-1.7-1.85-.4-.8-.6-1.72-.6-2.77s.21-1.98,.62-2.79,.99-1.44,1.73-1.89c.74-.45,1.6-.67,2.56-.67,.53,0,1.06,.07,1.58,.22,.53,.15,.98,.36,1.38,.64,.25,.17,.43,.33,.54,.49,.11,.16,.16,.34,.16,.54s-.05,.36-.16,.48c-.1,.13-.24,.19-.41,.19-.1,0-.2-.03-.32-.08-.11-.06-.21-.11-.28-.17-.08-.06-.13-.09-.16-.1-.36-.24-.71-.43-1.04-.57s-.73-.21-1.21-.21c-1.02,0-1.82,.35-2.38,1.04-.57,.69-.85,1.66-.85,2.89s.28,2.18,.85,2.86c.57,.67,1.36,1.01,2.38,1.01,.48,0,.88-.07,1.23-.21,.34-.14,.69-.33,1.04-.57,.15-.1,.3-.18,.44-.25s.26-.1,.36-.1c.15,0,.28,.06,.39,.19,.11,.13,.16,.29,.16,.48,0,.18-.05,.35-.15,.49s-.28,.31-.55,.49c-.39,.27-.86,.48-1.42,.64-.55,.16-1.11,.24-1.67,.24-.95,0-1.8-.22-2.53-.65Z"/><path d="M980.21,303.47c.11,.13,.17,.29,.17,.48,0,.35-.25,.67-.74,.97-.5,.29-1.04,.51-1.6,.66-.56,.15-1.11,.22-1.64,.22-1.58,0-2.83-.47-3.75-1.41s-1.38-2.23-1.38-3.89c0-1.05,.2-1.98,.61-2.78,.41-.8,.98-1.43,1.71-1.88,.73-.45,1.57-.67,2.51-.67,1.33,0,2.39,.43,3.17,1.3s1.18,2.04,1.18,3.53c0,.28-.06,.48-.17,.61-.11,.13-.29,.19-.55,.19h-6.76c.13,2.41,1.27,3.61,3.42,3.61,.55,0,1.02-.07,1.41-.22s.81-.35,1.26-.6c.36-.21,.61-.31,.74-.31,.15,0,.29,.06,.4,.19Zm-6.23-6.13c-.54,.56-.86,1.35-.96,2.37h5.94c-.03-1.04-.29-1.83-.78-2.38-.49-.55-1.18-.83-2.06-.83s-1.61,.28-2.15,.84Z"/><path d="M988.86,305.51c-.15-.16-.23-.37-.23-.64v-13.19c0-.25,.08-.46,.24-.61,.16-.15,.38-.23,.64-.23h7.64c.25,0,.45,.06,.59,.19,.14,.13,.21,.31,.21,.55,0,.22-.07,.4-.21,.52-.14,.13-.34,.19-.59,.19h-6.83v5.1h6.41c.25,0,.45,.06,.59,.19,.14,.13,.21,.31,.21,.55,0,.22-.07,.4-.21,.52-.14,.13-.34,.19-.59,.19h-6.41v6.03c0,.27-.07,.48-.22,.64-.15,.16-.35,.24-.62,.24s-.48-.08-.63-.24Z"/><path d="M1000.12,292.71c-.21-.2-.32-.45-.32-.78s.11-.56,.32-.76c.21-.2,.48-.29,.82-.29s.61,.1,.82,.29c.21,.2,.32,.45,.32,.76s-.11,.58-.32,.78c-.21,.2-.48,.29-.82,.29s-.61-.1-.82-.29Zm.2,12.82c-.16-.15-.24-.35-.24-.62v-8.86c0-.27,.08-.47,.24-.62s.37-.22,.62-.22,.45,.07,.61,.22,.23,.35,.23,.62v8.86c0,.28-.08,.49-.23,.63s-.36,.21-.61,.21-.46-.07-.62-.22Z"/><path d="M1005.19,305.53c-.16-.15-.24-.35-.24-.62v-13.33c0-.27,.08-.47,.24-.62,.16-.15,.37-.22,.62-.22,.24,0,.44,.07,.6,.22s.24,.35,.24,.62v13.33c0,.27-.08,.47-.24,.62-.16,.15-.36,.22-.6,.22-.25,0-.46-.07-.62-.22Z"/><path d="M1018.13,303.47c.11,.13,.17,.29,.17,.48,0,.35-.25,.67-.73,.97-.5,.29-1.04,.51-1.6,.66-.56,.15-1.11,.22-1.64,.22-1.58,0-2.83-.47-3.75-1.41s-1.38-2.23-1.38-3.89c0-1.05,.2-1.98,.61-2.78,.41-.8,.98-1.43,1.71-1.88,.74-.45,1.57-.67,2.51-.67,1.33,0,2.39,.43,3.17,1.3s1.18,2.04,1.18,3.53c0,.28-.06,.48-.17,.61s-.29,.19-.55,.19h-6.76c.13,2.41,1.27,3.61,3.42,3.61,.55,0,1.01-.07,1.41-.22,.39-.15,.81-.35,1.26-.6,.36-.21,.61-.31,.74-.31,.15,0,.29,.06,.4,.19Zm-6.23-6.13c-.54,.56-.86,1.35-.96,2.37h5.94c-.03-1.04-.29-1.83-.78-2.38-.49-.55-1.18-.83-2.06-.83s-1.61,.28-2.15,.84Z"/></g><path class="cls-5" d="M52.7,542.85c0,24,19.45,43.45,43.45,43.45h187.17c24,0,43.45-19.45,43.45-43.45s-19.45-43.45-43.45-43.45H96.15c-24,0-43.45,19.45-43.45,43.45,0,0,0-24,0,0Z"/><g><path d="M117.13,549.73c-1.02-.61-1.81-1.48-2.36-2.62-.55-1.14-.83-2.49-.83-4.04s.28-2.88,.83-4.02,1.34-2.02,2.36-2.62c1.02-.61,2.23-.91,3.63-.91,.94,0,1.82,.15,2.66,.45,.83,.3,1.56,.73,2.17,1.29,.22,.21,.34,.46,.34,.74,0,.2-.06,.37-.17,.51-.11,.15-.25,.22-.4,.22-.17,0-.37-.08-.61-.23-.71-.56-1.36-.95-1.94-1.18s-1.25-.34-2.01-.34c-1.62,0-2.87,.53-3.75,1.58-.88,1.06-1.31,2.56-1.31,4.5s.44,3.47,1.31,4.53c.88,1.06,2.12,1.59,3.75,1.59,.74,0,1.41-.11,2-.34,.59-.22,1.24-.62,1.95-1.18,.24-.15,.44-.23,.61-.23,.15,0,.29,.07,.4,.21,.11,.14,.17,.31,.17,.52,0,.28-.11,.53-.34,.74-.62,.56-1.34,.99-2.17,1.29-.83,.3-1.72,.45-2.66,.45-1.4,0-2.61-.3-3.63-.91Z"/><path d="M134.39,540.75c0,.22-.06,.4-.19,.54s-.34,.21-.65,.24l-.63,.06c-.94,.08-1.63,.42-2.09,1-.46,.58-.68,1.26-.68,2.05v5.1c0,.28-.08,.49-.23,.63-.15,.14-.36,.21-.61,.21s-.46-.07-.62-.22c-.16-.15-.24-.35-.24-.62v-8.86c0-.27,.08-.47,.25-.62,.17-.15,.37-.22,.61-.22,.22,0,.41,.07,.57,.22,.15,.15,.23,.35,.23,.6v1.18c.29-.62,.71-1.08,1.25-1.41,.54-.32,1.16-.51,1.86-.57l.29-.02c.59-.04,.88,.2,.88,.71Z"/><path d="M143.96,548.29c.11,.13,.17,.29,.17,.48,0,.35-.25,.67-.73,.97-.5,.29-1.04,.51-1.6,.66-.56,.15-1.11,.22-1.64,.22-1.58,0-2.83-.47-3.75-1.41-.92-.94-1.38-2.23-1.38-3.89,0-1.05,.2-1.98,.61-2.78,.41-.8,.98-1.43,1.71-1.88,.73-.45,1.57-.67,2.51-.67,1.33,0,2.39,.43,3.17,1.3s1.18,2.04,1.18,3.53c0,.28-.06,.48-.17,.61-.11,.13-.29,.19-.55,.19h-6.76c.13,2.41,1.27,3.61,3.42,3.61,.55,0,1.02-.07,1.41-.22,.39-.15,.81-.35,1.26-.6,.36-.21,.61-.31,.74-.31,.15,0,.29,.06,.4,.19Zm-6.23-6.13c-.54,.56-.86,1.35-.96,2.37h5.94c-.03-1.04-.29-1.83-.78-2.38-.49-.55-1.18-.83-2.06-.83s-1.61,.28-2.15,.84Z"/><path d="M154.74,544.03v5.71c0,.25-.07,.46-.22,.61-.15,.15-.35,.23-.6,.23s-.46-.08-.61-.23c-.15-.15-.23-.36-.23-.61v-1.01c-.27,.6-.67,1.07-1.22,1.4-.55,.33-1.18,.49-1.89,.49-.66,0-1.26-.13-1.82-.4-.55-.27-.99-.64-1.31-1.11-.32-.48-.48-1-.48-1.58,0-.77,.2-1.37,.59-1.79,.39-.43,1.04-.74,1.93-.92,.9-.19,2.14-.28,3.74-.28h.46v-.69c0-.84-.17-1.46-.51-1.85-.34-.39-.9-.59-1.67-.59-.95,0-1.92,.26-2.9,.78-.38,.24-.64,.36-.8,.36-.17,0-.31-.06-.42-.19-.11-.13-.17-.29-.17-.48s.06-.37,.18-.51c.12-.15,.31-.3,.58-.45,.49-.28,1.05-.5,1.67-.66,.62-.16,1.24-.24,1.86-.24,2.56,0,3.84,1.34,3.84,4.03Zm-2.47,4.4c.54-.57,.81-1.3,.81-2.19v-.61h-.38c-1.23,0-2.17,.05-2.81,.16-.64,.1-1.1,.28-1.38,.52-.27,.25-.41,.61-.41,1.08,0,.55,.2,1,.6,1.35,.4,.36,.9,.54,1.5,.54,.84,0,1.53-.28,2.07-.85Z"/><path d="M163.31,549.91c0,.24-.09,.42-.26,.54-.18,.12-.44,.17-.79,.14l-.57-.04c-1.12-.08-1.95-.42-2.48-1.01-.53-.59-.8-1.48-.8-2.67v-5.27h-1.41c-.24,0-.42-.06-.56-.18-.13-.12-.2-.28-.2-.47,0-.21,.07-.38,.2-.5,.13-.13,.32-.19,.56-.19h1.41v-2.37c0-.27,.08-.47,.23-.62,.15-.15,.36-.22,.63-.22,.25,0,.46,.07,.61,.22,.15,.15,.23,.35,.23,.62v2.37h2.33c.22,0,.4,.06,.54,.19,.13,.13,.2,.29,.2,.5,0,.2-.07,.35-.2,.47-.13,.12-.31,.18-.54,.18h-2.33v5.35c0,.77,.16,1.33,.47,1.67s.79,.54,1.42,.58l.57,.04c.49,.04,.74,.27,.74,.67Z"/><path d="M173.3,548.29c.11,.13,.17,.29,.17,.48,0,.35-.25,.67-.73,.97-.5,.29-1.04,.51-1.6,.66-.56,.15-1.11,.22-1.64,.22-1.58,0-2.83-.47-3.75-1.41-.92-.94-1.38-2.23-1.38-3.89,0-1.05,.2-1.98,.61-2.78,.41-.8,.98-1.43,1.71-1.88,.73-.45,1.57-.67,2.51-.67,1.33,0,2.39,.43,3.17,1.3s1.18,2.04,1.18,3.53c0,.28-.06,.48-.17,.61-.11,.13-.29,.19-.55,.19h-6.76c.13,2.41,1.27,3.61,3.42,3.61,.55,0,1.02-.07,1.41-.22,.39-.15,.81-.35,1.26-.6,.36-.21,.61-.31,.74-.31,.15,0,.29,.06,.4,.19Zm-6.23-6.13c-.54,.56-.86,1.35-.96,2.37h5.94c-.03-1.04-.29-1.83-.78-2.38-.49-.55-1.18-.83-2.06-.83s-1.61,.28-2.15,.84Z"/><path d="M194.55,549.84c0,.21-.08,.38-.24,.52-.16,.14-.35,.21-.58,.21-.35,0-.6-.17-.73-.5l-1.49-3.4h-7.92l-1.51,3.4c-.14,.34-.39,.5-.73,.5-.22,0-.42-.07-.59-.22-.17-.15-.25-.33-.25-.54,0-.11,.03-.22,.08-.34l6.01-13.36c.08-.2,.21-.34,.38-.44s.35-.15,.55-.15c.21,0,.4,.05,.57,.16,.17,.1,.29,.25,.38,.43l6.01,13.36c.06,.11,.08,.23,.08,.36Zm-3.68-4.6l-3.34-7.54-3.32,7.54h6.66Z"/><path d="M197.22,550.34c-.15-.16-.23-.37-.23-.64v-13.19c0-.25,.08-.46,.24-.61s.37-.23,.64-.23h4.98c1.55,0,2.76,.38,3.62,1.13,.86,.76,1.29,1.83,1.29,3.21s-.43,2.46-1.3,3.23c-.87,.77-2.07,1.16-3.61,1.16h-4.14v5.29c0,.27-.08,.48-.23,.64-.15,.16-.36,.24-.63,.24s-.48-.08-.63-.24Zm5.46-7.36c2.25,0,3.38-.99,3.38-2.96s-1.13-2.92-3.38-2.92h-3.97v5.88h3.97Z"/><path d="M210.76,550.34c-.15-.16-.23-.37-.23-.64v-13.25c0-.27,.08-.48,.23-.64,.15-.16,.36-.24,.63-.24s.48,.08,.63,.24c.15,.16,.23,.38,.23,.64v13.25c0,.27-.08,.48-.23,.64-.15,.16-.36,.24-.63,.24s-.48-.08-.63-.24Z"/><path d="M221.57,550.24c-.16-.15-.24-.36-.24-.61v-13.12c0-.25,.08-.46,.24-.61s.37-.23,.64-.23h4.1c2.37,0,4.2,.64,5.49,1.92s1.94,3.1,1.94,5.47-.65,4.19-1.95,5.48c-1.3,1.29-3.13,1.93-5.48,1.93h-4.1c-.27,0-.48-.08-.64-.23Zm4.63-1.24c3.84,0,5.75-1.98,5.75-5.94s-1.92-5.92-5.75-5.92h-3.15v11.86h3.15Z"/><path d="M238.28,549.97c-.74-.43-1.3-1.05-1.7-1.86-.4-.81-.6-1.74-.6-2.8s.2-2,.6-2.8c.4-.8,.97-1.42,1.7-1.86,.73-.43,1.59-.65,2.55-.65s1.82,.22,2.56,.65,1.31,1.05,1.71,1.86c.4,.81,.6,1.74,.6,2.8s-.2,2-.6,2.8c-.4,.8-.97,1.42-1.71,1.86-.74,.43-1.6,.65-2.56,.65s-1.82-.22-2.55-.65Zm4.87-1.75c.54-.67,.81-1.63,.81-2.91s-.27-2.21-.82-2.89-1.32-1.02-2.31-1.02-1.76,.34-2.31,1.02c-.55,.68-.82,1.64-.82,2.89s.27,2.23,.81,2.9c.54,.67,1.31,1.01,2.32,1.01s1.78-.33,2.32-1Z"/><path d="M249.94,549.97c-.74-.43-1.3-1.05-1.7-1.85s-.6-1.72-.6-2.77,.21-1.98,.62-2.79c.41-.81,.99-1.44,1.73-1.89,.74-.45,1.6-.67,2.56-.67,.53,0,1.06,.07,1.59,.22,.53,.15,.98,.36,1.38,.64,.25,.17,.43,.33,.54,.49,.1,.16,.16,.34,.16,.54s-.05,.36-.16,.48-.24,.19-.41,.19c-.1,0-.2-.03-.31-.08-.11-.06-.21-.11-.28-.17-.08-.06-.13-.09-.16-.11-.36-.24-.71-.43-1.04-.57-.33-.14-.73-.21-1.21-.21-1.02,0-1.82,.35-2.38,1.04s-.85,1.66-.85,2.89,.28,2.18,.85,2.86,1.36,1.01,2.38,1.01c.48,0,.89-.07,1.23-.21,.34-.14,.69-.33,1.04-.57,.15-.1,.3-.18,.44-.25s.26-.11,.36-.11c.15,0,.28,.06,.39,.19s.16,.29,.16,.48c0,.18-.05,.35-.15,.49-.1,.15-.28,.31-.55,.49-.39,.27-.86,.48-1.42,.64s-1.11,.24-1.67,.24c-.95,0-1.8-.22-2.53-.65Z"/><path d="M259.91,550.39c-.58-.15-1.1-.37-1.54-.65-.25-.17-.43-.33-.54-.47-.1-.15-.16-.33-.16-.54,0-.18,.05-.33,.16-.45s.24-.18,.41-.18,.41,.1,.73,.31c.42,.25,.84,.45,1.25,.6,.41,.15,.93,.22,1.54,.22,.76,0,1.34-.13,1.76-.4,.42-.27,.63-.65,.63-1.15,0-.31-.08-.56-.23-.75-.15-.19-.42-.36-.8-.5-.38-.15-.93-.3-1.66-.45-1.23-.27-2.11-.62-2.65-1.07-.53-.45-.8-1.06-.8-1.83,0-.6,.17-1.13,.5-1.6s.8-.83,1.4-1.09c.59-.27,1.27-.4,2.03-.4,.55,0,1.07,.07,1.59,.22,.51,.15,.96,.35,1.35,.62,.48,.34,.71,.69,.71,1.05,0,.18-.06,.34-.17,.46-.11,.13-.25,.19-.4,.19-.17,0-.42-.12-.76-.36-.39-.25-.76-.45-1.11-.59-.35-.14-.78-.21-1.3-.21-.66,0-1.19,.15-1.59,.44s-.6,.69-.6,1.18c0,.31,.07,.56,.22,.75,.15,.19,.39,.36,.73,.5,.34,.15,.84,.29,1.48,.43,.95,.21,1.69,.44,2.22,.69,.53,.25,.9,.56,1.12,.92,.22,.36,.34,.83,.34,1.39,0,.88-.37,1.59-1.11,2.13-.74,.54-1.72,.81-2.94,.81-.64,0-1.26-.08-1.84-.23Z"/></g><path class="cls-5" d="M416.43,464.51c0,14.51,11.76,26.27,26.27,26.27h221.53c14.51,0,26.27-11.76,26.27-26.27s-11.76-26.27-26.27-26.27h-221.53c-14.51,0-26.27,11.76-26.27,26.27,0,0,0-14.51,0,0Z"/><path class="cls-5" d="M780.27,542.85c0,24,19.45,43.45,43.45,43.45h187.17c24,0,43.45-19.45,43.45-43.45s-19.45-43.45-43.45-43.45h-187.17c-24,0-43.45,19.45-43.45,43.45,0,0,0-24,0,0Z"/><g><path d="M835.2,550.41c-.16-.15-.24-.36-.24-.61v-13.12c0-.25,.08-.46,.24-.61,.16-.15,.37-.23,.64-.23h4.09c2.37,0,4.2,.64,5.49,1.92,1.29,1.28,1.94,3.1,1.94,5.47s-.65,4.19-1.95,5.48c-1.3,1.29-3.13,1.93-5.48,1.93h-4.09c-.27,0-.48-.08-.64-.23Zm4.63-1.24c3.83,0,5.75-1.98,5.75-5.94s-1.92-5.92-5.75-5.92h-3.15v11.87h3.15Z"/><path d="M858.54,548.46c.11,.13,.17,.29,.17,.48,0,.35-.25,.67-.74,.97-.5,.29-1.04,.51-1.6,.66-.56,.15-1.11,.22-1.64,.22-1.58,0-2.83-.47-3.75-1.41-.92-.94-1.38-2.23-1.38-3.88,0-1.05,.2-1.98,.61-2.78,.41-.8,.98-1.43,1.71-1.88,.73-.45,1.57-.67,2.51-.67,1.33,0,2.39,.43,3.17,1.3s1.18,2.04,1.18,3.53c0,.28-.06,.48-.17,.61-.11,.13-.29,.19-.55,.19h-6.76c.13,2.41,1.27,3.61,3.42,3.61,.55,0,1.02-.07,1.41-.22,.39-.15,.81-.35,1.26-.6,.36-.21,.61-.32,.74-.32,.15,0,.29,.06,.4,.19Zm-6.23-6.13c-.54,.56-.86,1.35-.96,2.37h5.94c-.03-1.04-.29-1.83-.78-2.38s-1.18-.83-2.06-.83-1.61,.28-2.15,.84Z"/><path d="M868.81,540.83c.69,.45,1.22,1.07,1.6,1.88,.38,.81,.57,1.74,.57,2.8s-.19,1.99-.57,2.78-.91,1.4-1.58,1.84c-.68,.43-1.47,.65-2.38,.65-.8,0-1.49-.17-2.09-.53-.59-.35-1.05-.85-1.35-1.49v4.94c0,.25-.07,.45-.22,.6-.15,.15-.35,.22-.62,.22s-.48-.08-.63-.23-.23-.35-.23-.59v-12.66c0-.25,.08-.46,.23-.61,.15-.15,.36-.23,.63-.23s.47,.08,.62,.23c.15,.15,.22,.36,.22,.61v1.13c.31-.64,.76-1.14,1.35-1.49,.6-.35,1.29-.52,2.09-.52,.9,0,1.69,.22,2.37,.67Zm-.4,7.54c.55-.67,.82-1.62,.82-2.86s-.27-2.19-.82-2.89c-.55-.69-1.32-1.04-2.31-1.04s-1.76,.34-2.3,1.01-.81,1.63-.81,2.88,.27,2.21,.81,2.89c.54,.68,1.31,1.02,2.3,1.02s1.76-.34,2.31-1.01Z"/><path d="M873.75,550.53c-.16-.15-.24-.35-.24-.62v-13.33c0-.27,.08-.47,.24-.62,.16-.15,.37-.22,.62-.22,.24,0,.44,.07,.6,.22,.16,.15,.24,.35,.24,.62v13.33c0,.27-.08,.47-.24,.62s-.36,.22-.6,.22c-.25,0-.46-.07-.62-.22Z"/><path d="M880.07,550.14c-.74-.43-1.3-1.05-1.7-1.86-.4-.8-.6-1.74-.6-2.8s.2-2,.6-2.8c.4-.8,.97-1.42,1.7-1.86,.74-.43,1.59-.65,2.55-.65s1.82,.22,2.56,.65c.74,.43,1.31,1.05,1.71,1.86,.4,.81,.6,1.74,.6,2.8s-.2,2-.6,2.8c-.4,.81-.97,1.42-1.71,1.86-.74,.43-1.6,.65-2.56,.65s-1.82-.22-2.55-.65Zm4.87-1.75c.54-.67,.81-1.63,.81-2.91s-.27-2.21-.82-2.89c-.55-.68-1.32-1.02-2.31-1.02s-1.76,.34-2.31,1.02c-.55,.68-.82,1.64-.82,2.89s.27,2.23,.81,2.9c.54,.67,1.31,1.01,2.32,1.01s1.78-.33,2.32-1Z"/><path d="M898.02,540.23c.21,0,.4,.07,.57,.21,.17,.14,.25,.32,.25,.53,0,.13-.03,.24-.08,.34l-5.9,12.73c-.07,.15-.17,.27-.3,.36-.13,.08-.27,.13-.41,.13-.21,0-.4-.07-.56-.2-.16-.13-.24-.3-.24-.51,0-.11,.03-.22,.08-.34l1.47-3.17-4.16-8.99c-.06-.1-.08-.2-.08-.32,0-.21,.09-.39,.28-.55,.19-.15,.4-.23,.62-.23,.14,0,.28,.04,.41,.13,.13,.08,.23,.2,.3,.36l3.51,7.88,3.51-7.83c.15-.34,.4-.5,.74-.5Z"/><path d="M906.16,537.71c-.21-.2-.32-.46-.32-.78s.11-.56,.32-.76,.48-.29,.82-.29,.61,.1,.82,.29,.31,.45,.31,.76-.1,.58-.31,.78-.48,.29-.82,.29-.61-.1-.82-.29Zm.2,12.82c-.16-.15-.24-.35-.24-.62v-8.86c0-.27,.08-.47,.24-.62,.16-.15,.37-.22,.62-.22s.46,.07,.61,.22c.15,.15,.23,.35,.23,.62v8.86c0,.28-.08,.49-.23,.63-.15,.14-.36,.21-.61,.21s-.46-.07-.62-.22Z"/><path d="M919.81,544.22v5.69c0,.27-.07,.47-.22,.62-.15,.15-.35,.22-.62,.22s-.48-.07-.63-.22-.23-.35-.23-.62v-5.59c0-.95-.19-1.65-.56-2.08-.37-.43-.96-.65-1.78-.65-.94,0-1.69,.29-2.25,.86-.56,.57-.84,1.35-.84,2.33v5.12c0,.27-.07,.47-.22,.62-.15,.15-.35,.22-.62,.22s-.48-.07-.63-.22-.23-.35-.23-.62v-8.86c0-.25,.08-.46,.23-.61,.15-.15,.36-.23,.63-.23,.25,0,.45,.08,.6,.23,.15,.15,.22,.35,.22,.59v1.07c.34-.63,.8-1.11,1.41-1.44,.6-.33,1.29-.49,2.06-.49,2.45,0,3.67,1.35,3.67,4.05Z"/><path d="M928.38,550.08c0,.24-.09,.42-.26,.54-.18,.12-.44,.16-.79,.14l-.57-.04c-1.12-.08-1.95-.42-2.48-1.01-.53-.59-.8-1.48-.8-2.67v-5.27h-1.41c-.24,0-.42-.06-.56-.18-.13-.12-.2-.28-.2-.47,0-.21,.07-.38,.2-.5,.13-.13,.32-.19,.56-.19h1.41v-2.37c0-.27,.08-.47,.23-.62,.15-.15,.36-.22,.63-.22,.25,0,.46,.07,.61,.22,.15,.15,.23,.35,.23,.62v2.37h2.33c.22,0,.4,.06,.54,.19s.2,.29,.2,.5c0,.2-.07,.35-.2,.47-.13,.12-.31,.18-.54,.18h-2.33v5.36c0,.77,.16,1.33,.47,1.67,.31,.34,.79,.54,1.42,.58l.57,.04c.49,.04,.74,.27,.74,.67Z"/><path d="M931.75,550.14c-.74-.43-1.3-1.05-1.7-1.86-.4-.8-.6-1.74-.6-2.8s.2-2,.6-2.8c.4-.8,.97-1.42,1.7-1.86,.74-.43,1.59-.65,2.55-.65s1.82,.22,2.56,.65c.74,.43,1.31,1.05,1.71,1.86,.4,.81,.6,1.74,.6,2.8s-.2,2-.6,2.8c-.4,.81-.97,1.42-1.71,1.86-.74,.43-1.6,.65-2.56,.65s-1.82-.22-2.55-.65Zm4.87-1.75c.54-.67,.81-1.63,.81-2.91s-.27-2.21-.82-2.89c-.55-.68-1.32-1.02-2.31-1.02s-1.76,.34-2.31,1.02c-.55,.68-.82,1.64-.82,2.89s.27,2.23,.81,2.9c.54,.67,1.31,1.01,2.32,1.01s1.78-.33,2.32-1Z"/><path d="M952.59,550.08c0,.24-.09,.42-.26,.54-.18,.12-.44,.16-.79,.14l-.57-.04c-1.12-.08-1.95-.42-2.48-1.01-.53-.59-.8-1.48-.8-2.67v-5.27h-1.41c-.24,0-.42-.06-.56-.18-.13-.12-.2-.28-.2-.47,0-.21,.07-.38,.2-.5,.13-.13,.32-.19,.56-.19h1.41v-2.37c0-.27,.08-.47,.23-.62,.15-.15,.36-.22,.63-.22,.25,0,.46,.07,.61,.22,.15,.15,.23,.35,.23,.62v2.37h2.33c.22,0,.4,.06,.54,.19s.2,.29,.2,.5c0,.2-.07,.35-.2,.47-.13,.12-.31,.18-.54,.18h-2.33v5.36c0,.77,.16,1.33,.47,1.67,.31,.34,.79,.54,1.42,.58l.57,.04c.49,.04,.74,.27,.74,.67Z"/><path d="M962.3,544.2v5.71c0,.25-.07,.46-.22,.61-.15,.15-.35,.23-.6,.23s-.46-.08-.61-.23c-.15-.15-.23-.36-.23-.61v-1.01c-.27,.6-.67,1.07-1.22,1.4-.55,.33-1.18,.49-1.89,.49-.66,0-1.26-.13-1.82-.4-.55-.27-.99-.64-1.31-1.11-.32-.48-.48-1-.48-1.57,0-.77,.2-1.37,.59-1.8,.39-.43,1.04-.74,1.93-.92,.9-.19,2.14-.28,3.74-.28h.46v-.69c0-.84-.17-1.46-.51-1.85-.34-.39-.9-.59-1.67-.59-.95,0-1.92,.26-2.9,.78-.38,.24-.64,.36-.8,.36-.17,0-.31-.06-.42-.19s-.17-.29-.17-.48,.06-.37,.18-.51c.12-.15,.31-.3,.58-.45,.49-.28,1.05-.5,1.67-.66,.62-.16,1.24-.24,1.86-.24,2.56,0,3.84,1.34,3.84,4.03Zm-2.47,4.4c.54-.57,.81-1.3,.81-2.2v-.61h-.38c-1.23,0-2.17,.05-2.81,.16-.64,.11-1.1,.28-1.38,.53-.27,.25-.41,.61-.41,1.08,0,.55,.2,1,.6,1.35,.4,.36,.9,.54,1.5,.54,.84,0,1.53-.28,2.07-.85Z"/><path d="M971.35,540.92c0,.22-.06,.4-.19,.54-.13,.13-.34,.21-.65,.24l-.63,.06c-.94,.08-1.63,.42-2.09,1-.46,.58-.68,1.26-.68,2.05v5.1c0,.28-.08,.49-.23,.63-.15,.14-.36,.21-.61,.21s-.46-.07-.62-.22c-.16-.15-.24-.35-.24-.62v-8.86c0-.27,.08-.47,.25-.62,.17-.15,.37-.22,.61-.22,.22,0,.41,.07,.57,.22,.15,.15,.23,.35,.23,.6v1.18c.29-.62,.71-1.08,1.25-1.41s1.16-.51,1.86-.57l.29-.02c.59-.04,.88,.2,.88,.71Z"/><path d="M981.53,540.44c.15,.15,.23,.36,.23,.61v8.9c0,1.53-.39,2.68-1.18,3.45s-1.95,1.17-3.49,1.17-2.74-.29-3.74-.88c-.5-.28-.76-.6-.76-.97,0-.2,.05-.36,.16-.48,.1-.13,.24-.19,.41-.19,.14,0,.39,.1,.76,.29,.49,.25,.97,.46,1.45,.61,.48,.15,1.04,.23,1.7,.23,.99,0,1.74-.26,2.25-.79,.5-.53,.76-1.29,.76-2.3v-1.81c-.29,.66-.75,1.16-1.35,1.51-.61,.35-1.33,.53-2.15,.53-.9,0-1.69-.21-2.38-.63-.69-.42-1.23-1.02-1.62-1.79-.38-.77-.58-1.66-.58-2.67s.19-1.9,.58-2.67c.38-.77,.92-1.37,1.62-1.79s1.49-.63,2.38-.63c.81,0,1.52,.17,2.12,.52,.6,.35,1.06,.85,1.36,1.49v-1.13c0-.25,.07-.46,.22-.61,.15-.15,.35-.23,.62-.23s.48,.08,.63,.23Zm-2.31,7.51c.56-.65,.84-1.55,.84-2.7s-.28-2.03-.83-2.68-1.33-.98-2.32-.98-1.77,.33-2.34,.98c-.57,.65-.85,1.54-.85,2.68s.28,2.05,.85,2.7c.57,.65,1.35,.98,2.34,.98s1.75-.33,2.31-.98Z"/><path d="M993.23,548.46c.11,.13,.17,.29,.17,.48,0,.35-.25,.67-.74,.97-.5,.29-1.04,.51-1.6,.66-.56,.15-1.11,.22-1.64,.22-1.58,0-2.83-.47-3.75-1.41-.92-.94-1.38-2.23-1.38-3.88,0-1.05,.2-1.98,.61-2.78,.41-.8,.98-1.43,1.71-1.88,.73-.45,1.57-.67,2.51-.67,1.33,0,2.39,.43,3.17,1.3s1.18,2.04,1.18,3.53c0,.28-.06,.48-.17,.61-.11,.13-.29,.19-.55,.19h-6.76c.13,2.41,1.27,3.61,3.42,3.61,.55,0,1.02-.07,1.41-.22,.39-.15,.81-.35,1.26-.6,.36-.21,.61-.32,.74-.32,.15,0,.29,.06,.4,.19Zm-6.23-6.13c-.54,.56-.86,1.35-.96,2.37h5.94c-.03-1.04-.29-1.83-.78-2.38s-1.18-.83-2.06-.83-1.61,.28-2.15,.84Z"/><path d="M1001.38,550.08c0,.24-.09,.42-.26,.54s-.44,.16-.79,.14l-.57-.04c-1.12-.08-1.95-.42-2.48-1.01-.53-.59-.8-1.48-.8-2.67v-5.27h-1.41c-.24,0-.42-.06-.56-.18-.13-.12-.2-.28-.2-.47,0-.21,.07-.38,.2-.5s.32-.19,.56-.19h1.41v-2.37c0-.27,.08-.47,.23-.62,.15-.15,.36-.22,.63-.22,.25,0,.46,.07,.61,.22,.15,.15,.23,.35,.23,.62v2.37h2.33c.22,0,.4,.06,.54,.19,.13,.13,.2,.29,.2,.5,0,.2-.07,.35-.2,.47-.13,.12-.31,.18-.54,.18h-2.33v5.36c0,.77,.16,1.33,.47,1.67,.32,.34,.79,.54,1.42,.58l.57,.04c.49,.04,.74,.27,.74,.67Z"/></g><g><path d="M462.08,472.32c-.67,.34-2.02,.67-3.74,.67-3.99,0-6.99-2.52-6.99-7.16s3-7.43,7.39-7.43c1.76,0,2.88,.38,3.36,.63l-.44,1.49c-.69-.34-1.68-.59-2.86-.59-3.32,0-5.52,2.12-5.52,5.84,0,3.46,1.99,5.69,5.44,5.69,1.11,0,2.25-.23,2.98-.59l.38,1.45Z"/><path d="M464.25,465.79c0-1.2-.02-2.23-.08-3.17h1.62l.06,2h.08c.46-1.37,1.57-2.23,2.81-2.23,.21,0,.36,.02,.53,.06v1.74c-.19-.04-.38-.06-.63-.06-1.3,0-2.23,.99-2.48,2.37-.04,.25-.08,.55-.08,.86v5.42h-1.83v-6.99Z"/><path d="M471.94,468.04c.04,2.5,1.64,3.53,3.49,3.53,1.32,0,2.12-.23,2.81-.53l.31,1.32c-.65,.29-1.76,.63-3.38,.63-3.13,0-5-2.06-5-5.12s1.81-5.48,4.77-5.48c3.32,0,4.2,2.92,4.2,4.79,0,.38-.04,.67-.06,.86h-7.14Zm5.42-1.32c.02-1.18-.48-3-2.56-3-1.87,0-2.69,1.72-2.83,3h5.4Z"/><path d="M487.05,472.78l-.15-1.28h-.06c-.57,.8-1.66,1.51-3.11,1.51-2.06,0-3.11-1.45-3.11-2.92,0-2.46,2.18-3.8,6.11-3.78v-.21c0-.84-.23-2.35-2.31-2.35-.95,0-1.93,.29-2.65,.76l-.42-1.22c.84-.55,2.06-.9,3.34-.9,3.11,0,3.86,2.12,3.86,4.16v3.8c0,.88,.04,1.74,.17,2.44h-1.68Zm-.27-5.19c-2.02-.04-4.3,.32-4.3,2.29,0,1.2,.8,1.76,1.74,1.76,1.32,0,2.16-.84,2.46-1.7,.06-.19,.11-.4,.11-.59v-1.76Z"/><path d="M493.69,459.7v2.92h2.64v1.41h-2.64v5.48c0,1.26,.36,1.97,1.38,1.97,.48,0,.84-.06,1.07-.13l.08,1.39c-.36,.15-.92,.25-1.64,.25-.86,0-1.55-.27-1.99-.78-.53-.54-.71-1.45-.71-2.64v-5.54h-1.57v-1.41h1.57v-2.44l1.81-.48Z"/><path d="M499.32,468.04c.04,2.5,1.64,3.53,3.49,3.53,1.32,0,2.12-.23,2.81-.53l.31,1.32c-.65,.29-1.76,.63-3.38,.63-3.13,0-5-2.06-5-5.12s1.81-5.48,4.77-5.48c3.32,0,4.2,2.92,4.2,4.79,0,.38-.04,.67-.06,.86h-7.14Zm5.42-1.32c.02-1.18-.48-3-2.56-3-1.87,0-2.69,1.72-2.83,3h5.4Z"/><path d="M517.78,458.8c.88-.15,2.04-.27,3.51-.27,1.81,0,3.13,.42,3.97,1.18,.78,.67,1.24,1.7,1.24,2.96s-.38,2.29-1.09,3.02c-.96,1.03-2.54,1.55-4.32,1.55-.55,0-1.05-.02-1.47-.13v5.67h-1.83v-13.98Zm1.83,6.82c.4,.1,.9,.15,1.51,.15,2.21,0,3.55-1.07,3.55-3.02s-1.32-2.77-3.34-2.77c-.8,0-1.41,.06-1.72,.15v5.5Z"/><path d="M529.64,462.62l2.22,6c.23,.67,.48,1.47,.65,2.08h.04c.19-.61,.4-1.38,.65-2.12l2.02-5.96h1.95l-2.77,7.24c-1.32,3.49-2.23,5.27-3.49,6.36-.9,.8-1.81,1.11-2.27,1.2l-.46-1.55c.46-.15,1.07-.44,1.62-.9,.5-.4,1.13-1.11,1.55-2.06,.08-.19,.15-.34,.15-.44s-.04-.25-.13-.48l-3.76-9.36h2.02Z"/><path d="M541.09,459.7v2.92h2.65v1.41h-2.65v5.48c0,1.26,.36,1.97,1.39,1.97,.48,0,.84-.06,1.07-.13l.08,1.39c-.36,.15-.92,.25-1.64,.25-.86,0-1.55-.27-2-.78-.52-.54-.71-1.45-.71-2.64v-5.54h-1.58v-1.41h1.58v-2.44l1.8-.48Z"/><path d="M545.81,457.87h1.85v6.34h.04c.29-.52,.76-.99,1.32-1.3,.55-.31,1.2-.53,1.89-.53,1.37,0,3.55,.84,3.55,4.35v6.05h-1.85v-5.84c0-1.64-.61-3.02-2.35-3.02-1.2,0-2.14,.84-2.48,1.85-.1,.25-.12,.53-.12,.88v6.13h-1.85v-14.91Z"/><path d="M566.66,467.62c0,3.76-2.6,5.4-5.06,5.4-2.75,0-4.87-2.02-4.87-5.23,0-3.4,2.23-5.4,5.04-5.4s4.89,2.12,4.89,5.23Zm-8.06,.11c0,2.22,1.28,3.9,3.09,3.9s3.09-1.66,3.09-3.95c0-1.72-.86-3.9-3.04-3.9s-3.13,2.02-3.13,3.95Z"/><path d="M569,465.37c0-1.05-.02-1.91-.08-2.75h1.64l.11,1.68h.04c.5-.97,1.68-1.91,3.36-1.91,1.41,0,3.59,.84,3.59,4.33v6.07h-1.85v-5.86c0-1.64-.61-3-2.35-3-1.22,0-2.16,.86-2.48,1.89-.08,.23-.12,.55-.12,.86v6.11h-1.85v-7.41Z"/><path d="M585.16,458.8c.88-.15,2.04-.27,3.51-.27,1.8,0,3.13,.42,3.97,1.18,.78,.67,1.24,1.7,1.24,2.96s-.38,2.29-1.09,3.02c-.97,1.03-2.54,1.55-4.33,1.55-.54,0-1.05-.02-1.47-.13v5.67h-1.83v-13.98Zm1.83,6.82c.4,.1,.9,.15,1.51,.15,2.2,0,3.55-1.07,3.55-3.02s-1.32-2.77-3.34-2.77c-.8,0-1.41,.06-1.72,.15v5.5Z"/><path d="M601.35,472.78l-.15-1.28h-.06c-.57,.8-1.66,1.51-3.11,1.51-2.06,0-3.11-1.45-3.11-2.92,0-2.46,2.18-3.8,6.11-3.78v-.21c0-.84-.23-2.35-2.31-2.35-.94,0-1.93,.29-2.65,.76l-.42-1.22c.84-.55,2.06-.9,3.34-.9,3.11,0,3.86,2.12,3.86,4.16v3.8c0,.88,.04,1.74,.17,2.44h-1.68Zm-.27-5.19c-2.02-.04-4.3,.32-4.3,2.29,0,1.2,.8,1.76,1.74,1.76,1.32,0,2.16-.84,2.46-1.7,.06-.19,.1-.4,.1-.59v-1.76Z"/><path d="M613.09,472.4c-.48,.25-1.55,.59-2.92,.59-3.07,0-5.06-2.08-5.06-5.19s2.14-5.4,5.46-5.4c1.09,0,2.06,.27,2.56,.53l-.42,1.43c-.44-.25-1.13-.48-2.14-.48-2.33,0-3.59,1.72-3.59,3.84,0,2.35,1.51,3.8,3.53,3.8,1.05,0,1.74-.27,2.27-.5l.31,1.39Z"/><path d="M617.08,467.28h.04c.25-.36,.61-.8,.9-1.15l2.98-3.51h2.22l-3.93,4.18,4.47,5.98h-2.25l-3.51-4.87-.94,1.05v3.82h-1.83v-14.91h1.83v9.41Z"/><path d="M631.11,472.78l-.15-1.28h-.06c-.57,.8-1.66,1.51-3.11,1.51-2.06,0-3.11-1.45-3.11-2.92,0-2.46,2.18-3.8,6.11-3.78v-.21c0-.84-.23-2.35-2.31-2.35-.94,0-1.93,.29-2.65,.76l-.42-1.22c.84-.55,2.06-.9,3.34-.9,3.11,0,3.86,2.12,3.86,4.16v3.8c0,.88,.04,1.74,.17,2.44h-1.68Zm-.27-5.19c-2.02-.04-4.3,.32-4.3,2.29,0,1.2,.8,1.76,1.74,1.76,1.32,0,2.16-.84,2.46-1.7,.06-.19,.1-.4,.1-.59v-1.76Z"/><path d="M644.36,462.62c-.04,.74-.08,1.55-.08,2.79v5.9c0,2.33-.46,3.76-1.45,4.64-.99,.92-2.42,1.22-3.7,1.22s-2.56-.29-3.38-.84l.46-1.41c.67,.42,1.72,.8,2.98,.8,1.89,0,3.28-.99,3.28-3.55v-1.13h-.04c-.57,.95-1.66,1.7-3.23,1.7-2.52,0-4.33-2.14-4.33-4.96,0-3.44,2.25-5.4,4.58-5.4,1.76,0,2.73,.92,3.17,1.76h.04l.08-1.53h1.62Zm-1.91,4.01c0-.32-.02-.59-.1-.84-.34-1.07-1.24-1.95-2.58-1.95-1.76,0-3.02,1.49-3.02,3.84,0,2,1.01,3.65,3,3.65,1.13,0,2.16-.71,2.56-1.89,.11-.31,.15-.67,.15-.99v-1.83Z"/><path d="M648.37,468.04c.04,2.5,1.64,3.53,3.49,3.53,1.32,0,2.12-.23,2.81-.53l.31,1.32c-.65,.29-1.76,.63-3.38,.63-3.13,0-5-2.06-5-5.12s1.81-5.48,4.77-5.48c3.32,0,4.2,2.92,4.2,4.79,0,.38-.04,.67-.06,.86h-7.14Zm5.42-1.32c.02-1.18-.48-3-2.56-3-1.87,0-2.69,1.72-2.83,3h5.4Z"/></g><path class="cls-5" d="M416.38,542.85c0,14.51,11.76,26.27,26.27,26.27h221.53c14.51,0,26.27-11.76,26.27-26.27s-11.76-26.27-26.27-26.27h-221.53c-14.51,0-26.27,11.76-26.27,26.27,0,0,0-14.51,0,0Z"/><g><path d="M462.03,550.66c-.67,.34-2.02,.67-3.74,.67-3.99,0-6.99-2.52-6.99-7.16s3-7.43,7.39-7.43c1.76,0,2.88,.38,3.36,.63l-.44,1.49c-.69-.34-1.68-.59-2.86-.59-3.32,0-5.52,2.12-5.52,5.84,0,3.46,1.99,5.69,5.44,5.69,1.11,0,2.25-.23,2.98-.59l.38,1.45Z"/><path d="M464.2,544.13c0-1.2-.02-2.23-.08-3.17h1.62l.06,2h.08c.46-1.37,1.57-2.23,2.81-2.23,.21,0,.36,.02,.53,.06v1.74c-.19-.04-.38-.06-.63-.06-1.3,0-2.23,.99-2.48,2.37-.04,.25-.08,.55-.08,.86v5.42h-1.83v-6.99Z"/><path d="M471.88,546.37c.04,2.5,1.64,3.53,3.49,3.53,1.32,0,2.12-.23,2.81-.53l.31,1.32c-.65,.29-1.76,.63-3.38,.63-3.13,0-5-2.06-5-5.12s1.81-5.48,4.77-5.48c3.32,0,4.2,2.92,4.2,4.79,0,.38-.04,.67-.06,.86h-7.14Zm5.42-1.32c.02-1.18-.48-3-2.56-3-1.87,0-2.69,1.72-2.83,3h5.4Z"/><path d="M487,551.12l-.15-1.28h-.06c-.57,.8-1.66,1.51-3.11,1.51-2.06,0-3.11-1.45-3.11-2.92,0-2.46,2.18-3.8,6.11-3.78v-.21c0-.84-.23-2.35-2.31-2.35-.95,0-1.93,.29-2.65,.76l-.42-1.22c.84-.55,2.06-.9,3.34-.9,3.11,0,3.86,2.12,3.86,4.16v3.8c0,.88,.04,1.74,.17,2.44h-1.68Zm-.27-5.19c-2.02-.04-4.3,.32-4.3,2.29,0,1.2,.8,1.76,1.74,1.76,1.32,0,2.16-.84,2.46-1.7,.06-.19,.11-.4,.11-.59v-1.76Z"/><path d="M493.64,538.04v2.92h2.64v1.41h-2.64v5.48c0,1.26,.36,1.97,1.38,1.97,.48,0,.84-.06,1.07-.13l.08,1.39c-.36,.15-.92,.25-1.64,.25-.86,0-1.55-.27-1.99-.78-.53-.54-.71-1.45-.71-2.64v-5.54h-1.57v-1.41h1.57v-2.44l1.81-.48Z"/><path d="M499.27,546.37c.04,2.5,1.64,3.53,3.49,3.53,1.32,0,2.12-.23,2.81-.53l.31,1.32c-.65,.29-1.76,.63-3.38,.63-3.13,0-5-2.06-5-5.12s1.81-5.48,4.77-5.48c3.32,0,4.2,2.92,4.2,4.79,0,.38-.04,.67-.06,.86h-7.14Zm5.42-1.32c.02-1.18-.48-3-2.56-3-1.87,0-2.69,1.72-2.83,3h5.4Z"/><path d="M517.72,537.13c.88-.15,2.04-.27,3.51-.27,1.81,0,3.13,.42,3.97,1.18,.78,.67,1.24,1.7,1.24,2.96s-.38,2.29-1.09,3.02c-.96,1.03-2.54,1.55-4.32,1.55-.55,0-1.05-.02-1.47-.13v5.67h-1.83v-13.98Zm1.83,6.82c.4,.1,.9,.15,1.51,.15,2.21,0,3.55-1.07,3.55-3.02s-1.32-2.77-3.34-2.77c-.8,0-1.41,.06-1.72,.15v5.5Z"/><path d="M529.59,540.96l2.22,6c.23,.67,.48,1.47,.65,2.08h.04c.19-.61,.4-1.38,.65-2.12l2.02-5.96h1.95l-2.77,7.24c-1.32,3.49-2.23,5.27-3.49,6.36-.9,.8-1.81,1.11-2.27,1.2l-.46-1.55c.46-.15,1.07-.44,1.62-.9,.5-.4,1.13-1.11,1.55-2.06,.08-.19,.15-.34,.15-.44s-.04-.25-.13-.48l-3.76-9.36h2.02Z"/><path d="M541.03,538.04v2.92h2.65v1.41h-2.65v5.48c0,1.26,.36,1.97,1.39,1.97,.48,0,.84-.06,1.07-.13l.08,1.39c-.36,.15-.92,.25-1.64,.25-.86,0-1.55-.27-2-.78-.52-.54-.71-1.45-.71-2.64v-5.54h-1.58v-1.41h1.58v-2.44l1.8-.48Z"/><path d="M545.76,536.21h1.85v6.34h.04c.29-.52,.76-.99,1.32-1.3,.55-.31,1.2-.53,1.89-.53,1.37,0,3.55,.84,3.55,4.35v6.05h-1.85v-5.84c0-1.64-.61-3.02-2.35-3.02-1.2,0-2.14,.84-2.48,1.85-.1,.25-.12,.53-.12,.88v6.13h-1.85v-14.91Z"/><path d="M566.61,545.95c0,3.76-2.6,5.4-5.06,5.4-2.75,0-4.87-2.02-4.87-5.23,0-3.4,2.23-5.4,5.04-5.4s4.89,2.12,4.89,5.23Zm-8.06,.11c0,2.22,1.28,3.9,3.09,3.9s3.09-1.66,3.09-3.95c0-1.72-.86-3.9-3.04-3.9s-3.13,2.02-3.13,3.95Z"/><path d="M568.94,543.71c0-1.05-.02-1.91-.08-2.75h1.64l.11,1.68h.04c.5-.97,1.68-1.91,3.36-1.91,1.41,0,3.59,.84,3.59,4.33v6.07h-1.85v-5.86c0-1.64-.61-3-2.35-3-1.22,0-2.16,.86-2.48,1.89-.08,.23-.12,.55-.12,.86v6.11h-1.85v-7.41Z"/><path d="M585.11,537.13c.88-.15,2.04-.27,3.51-.27,1.8,0,3.13,.42,3.97,1.18,.78,.67,1.24,1.7,1.24,2.96s-.38,2.29-1.09,3.02c-.97,1.03-2.54,1.55-4.33,1.55-.54,0-1.05-.02-1.47-.13v5.67h-1.83v-13.98Zm1.83,6.82c.4,.1,.9,.15,1.51,.15,2.2,0,3.55-1.07,3.55-3.02s-1.32-2.77-3.34-2.77c-.8,0-1.41,.06-1.72,.15v5.5Z"/><path d="M601.3,551.12l-.15-1.28h-.06c-.57,.8-1.66,1.51-3.11,1.51-2.06,0-3.11-1.45-3.11-2.92,0-2.46,2.18-3.8,6.11-3.78v-.21c0-.84-.23-2.35-2.31-2.35-.94,0-1.93,.29-2.65,.76l-.42-1.22c.84-.55,2.06-.9,3.34-.9,3.11,0,3.86,2.12,3.86,4.16v3.8c0,.88,.04,1.74,.17,2.44h-1.68Zm-.27-5.19c-2.02-.04-4.3,.32-4.3,2.29,0,1.2,.8,1.76,1.74,1.76,1.32,0,2.16-.84,2.46-1.7,.06-.19,.1-.4,.1-.59v-1.76Z"/><path d="M613.04,550.74c-.48,.25-1.55,.59-2.92,.59-3.07,0-5.06-2.08-5.06-5.19s2.14-5.4,5.46-5.4c1.09,0,2.06,.27,2.56,.53l-.42,1.43c-.44-.25-1.13-.48-2.14-.48-2.33,0-3.59,1.72-3.59,3.84,0,2.35,1.51,3.8,3.53,3.8,1.05,0,1.74-.27,2.27-.5l.31,1.39Z"/><path d="M617.03,545.62h.04c.25-.36,.61-.8,.9-1.15l2.98-3.51h2.22l-3.93,4.18,4.47,5.98h-2.25l-3.51-4.87-.94,1.05v3.82h-1.83v-14.91h1.83v9.41Z"/><path d="M631.06,551.12l-.15-1.28h-.06c-.57,.8-1.66,1.51-3.11,1.51-2.06,0-3.11-1.45-3.11-2.92,0-2.46,2.18-3.8,6.11-3.78v-.21c0-.84-.23-2.35-2.31-2.35-.94,0-1.93,.29-2.65,.76l-.42-1.22c.84-.55,2.06-.9,3.34-.9,3.11,0,3.86,2.12,3.86,4.16v3.8c0,.88,.04,1.74,.17,2.44h-1.68Zm-.27-5.19c-2.02-.04-4.3,.32-4.3,2.29,0,1.2,.8,1.76,1.74,1.76,1.32,0,2.16-.84,2.46-1.7,.06-.19,.1-.4,.1-.59v-1.76Z"/><path d="M644.31,540.96c-.04,.74-.08,1.55-.08,2.79v5.9c0,2.33-.46,3.76-1.45,4.64-.99,.92-2.42,1.22-3.7,1.22s-2.56-.29-3.38-.84l.46-1.41c.67,.42,1.72,.8,2.98,.8,1.89,0,3.28-.99,3.28-3.55v-1.13h-.04c-.57,.95-1.66,1.7-3.23,1.7-2.52,0-4.33-2.14-4.33-4.96,0-3.44,2.25-5.4,4.58-5.4,1.76,0,2.73,.92,3.17,1.76h.04l.08-1.53h1.62Zm-1.91,4.01c0-.32-.02-.59-.1-.84-.34-1.07-1.24-1.95-2.58-1.95-1.76,0-3.02,1.49-3.02,3.84,0,2,1.01,3.65,3,3.65,1.13,0,2.16-.71,2.56-1.89,.11-.31,.15-.67,.15-.99v-1.83Z"/><path d="M648.32,546.37c.04,2.5,1.64,3.53,3.49,3.53,1.32,0,2.12-.23,2.81-.53l.31,1.32c-.65,.29-1.76,.63-3.38,.63-3.13,0-5-2.06-5-5.12s1.81-5.48,4.77-5.48c3.32,0,4.2,2.92,4.2,4.79,0,.38-.04,.67-.06,.86h-7.14Zm5.42-1.32c.02-1.18-.48-3-2.56-3-1.87,0-2.69,1.72-2.83,3h5.4Z"/></g><path class="cls-5" d="M416.38,621.19c0,14.51,11.76,26.27,26.27,26.27h221.53c14.51,0,26.27-11.76,26.27-26.27s-11.76-26.27-26.27-26.27h-221.53c-14.51,0-26.27,11.76-26.27,26.27,0,0,0-14.51,0,0Z"/><g><path d="M491.14,622.23c0,4.87-2.96,7.45-6.57,7.45s-6.36-2.9-6.36-7.18,2.79-7.43,6.57-7.43,6.36,2.96,6.36,7.16Zm-10.98,.23c0,3.02,1.64,5.73,4.51,5.73s4.54-2.67,4.54-5.88c0-2.81-1.47-5.75-4.51-5.75s-4.54,2.79-4.54,5.9Z"/><path d="M493.45,622.04c0-1.05-.02-1.91-.08-2.75h1.64l.11,1.68h.04c.5-.97,1.68-1.91,3.36-1.91,1.41,0,3.59,.84,3.59,4.33v6.07h-1.85v-5.86c0-1.64-.61-3-2.35-3-1.22,0-2.16,.86-2.48,1.89-.08,.23-.12,.55-.12,.86v6.11h-1.85v-7.41Z"/><path d="M505.1,614.55h1.85v14.91h-1.85v-14.91Z"/><path d="M510.73,619.29l2.22,6c.23,.67,.48,1.47,.65,2.08h.04c.19-.61,.4-1.38,.65-2.12l2.02-5.96h1.95l-2.77,7.24c-1.32,3.49-2.23,5.27-3.49,6.36-.9,.8-1.81,1.11-2.27,1.2l-.46-1.55c.46-.15,1.07-.44,1.62-.9,.5-.4,1.13-1.11,1.55-2.06,.08-.19,.15-.34,.15-.44s-.04-.25-.13-.48l-3.76-9.36h2.02Z"/><path d="M524.21,627.23c.82,.5,2.02,.92,3.28,.92,1.87,0,2.96-.99,2.96-2.41,0-1.32-.76-2.08-2.67-2.81-2.31-.82-3.74-2.02-3.74-4.01,0-2.21,1.83-3.84,4.58-3.84,1.45,0,2.5,.34,3.13,.69l-.5,1.49c-.46-.25-1.41-.67-2.69-.67-1.93,0-2.67,1.15-2.67,2.12,0,1.32,.86,1.97,2.81,2.73,2.39,.92,3.61,2.08,3.61,4.16,0,2.18-1.62,4.07-4.96,4.07-1.36,0-2.86-.4-3.61-.9l.46-1.53Z"/><path d="M540.44,629.45l-.15-1.28h-.06c-.57,.8-1.66,1.51-3.11,1.51-2.06,0-3.11-1.45-3.11-2.92,0-2.46,2.18-3.8,6.11-3.78v-.21c0-.84-.23-2.35-2.31-2.35-.95,0-1.93,.29-2.65,.76l-.42-1.22c.84-.55,2.06-.9,3.34-.9,3.11,0,3.86,2.12,3.86,4.16v3.8c0,.88,.04,1.74,.17,2.44h-1.68Zm-.27-5.19c-2.02-.04-4.3,.32-4.3,2.29,0,1.2,.8,1.76,1.74,1.76,1.32,0,2.16-.84,2.46-1.7,.06-.19,.11-.4,.11-.59v-1.76Z"/><path d="M545.49,619.29l1.99,5.71c.34,.92,.61,1.76,.82,2.6h.06c.23-.84,.52-1.68,.86-2.6l1.97-5.71h1.93l-3.99,10.16h-1.76l-3.86-10.16h1.97Z"/><path d="M555.69,624.71c.04,2.5,1.64,3.53,3.49,3.53,1.32,0,2.12-.23,2.81-.53l.31,1.32c-.65,.29-1.76,.63-3.38,.63-3.13,0-5-2.06-5-5.12s1.81-5.48,4.77-5.48c3.32,0,4.2,2.92,4.2,4.79,0,.38-.04,.67-.06,.86h-7.14Zm5.42-1.32c.02-1.18-.48-3-2.56-3-1.87,0-2.69,1.72-2.83,3h5.4Z"/><path d="M569.7,615.47c.88-.15,2.04-.27,3.51-.27,1.8,0,3.13,.42,3.97,1.18,.78,.67,1.24,1.7,1.24,2.96s-.38,2.29-1.09,3.02c-.97,1.03-2.54,1.55-4.33,1.55-.54,0-1.05-.02-1.47-.13v5.67h-1.83v-13.98Zm1.83,6.82c.4,.1,.9,.15,1.51,.15,2.2,0,3.55-1.07,3.55-3.02s-1.32-2.77-3.34-2.77c-.8,0-1.41,.06-1.72,.15v5.5Z"/><path d="M580.47,622.46c0-1.2-.02-2.23-.08-3.17h1.62l.06,2h.08c.46-1.37,1.58-2.23,2.81-2.23,.21,0,.36,.02,.52,.06v1.74c-.19-.04-.38-.06-.63-.06-1.3,0-2.23,.99-2.48,2.37-.04,.25-.08,.55-.08,.86v5.42h-1.83v-6.99Z"/><path d="M596.32,624.29c0,3.76-2.6,5.4-5.06,5.4-2.75,0-4.87-2.02-4.87-5.23,0-3.4,2.23-5.4,5.04-5.4s4.89,2.12,4.89,5.23Zm-8.06,.11c0,2.22,1.28,3.9,3.09,3.9s3.09-1.66,3.09-3.95c0-1.72-.86-3.9-3.04-3.9s-3.13,2.02-3.13,3.95Z"/><path d="M596.18,632.39c.84-.06,1.58-.29,2.02-.78,.5-.59,.69-1.39,.69-3.82v-8.5h1.85v9.22c0,1.97-.31,3.25-1.22,4.18-.82,.82-2.16,1.15-3.15,1.15l-.19-1.45Zm4.77-15.96c.02,.61-.42,1.13-1.16,1.13-.69,0-1.13-.53-1.13-1.13,0-.65,.48-1.16,1.18-1.16s1.11,.5,1.11,1.16Z"/><path d="M604.79,624.71c.04,2.5,1.64,3.53,3.49,3.53,1.32,0,2.12-.23,2.81-.53l.31,1.32c-.65,.29-1.76,.63-3.38,.63-3.13,0-5-2.06-5-5.12s1.81-5.48,4.77-5.48c3.32,0,4.2,2.92,4.2,4.79,0,.38-.04,.67-.06,.86h-7.14Zm5.42-1.32c.02-1.18-.48-3-2.56-3-1.87,0-2.69,1.72-2.83,3h5.4Z"/><path d="M621.52,629.08c-.48,.25-1.55,.59-2.92,.59-3.06,0-5.06-2.08-5.06-5.19s2.14-5.4,5.46-5.4c1.09,0,2.06,.27,2.56,.53l-.42,1.43c-.44-.25-1.13-.48-2.14-.48-2.33,0-3.59,1.72-3.59,3.84,0,2.35,1.51,3.8,3.53,3.8,1.05,0,1.74-.27,2.27-.5l.32,1.39Z"/><path d="M626.19,616.37v2.92h2.64v1.41h-2.64v5.48c0,1.26,.36,1.97,1.38,1.97,.48,0,.84-.06,1.07-.13l.08,1.39c-.36,.15-.92,.25-1.64,.25-.86,0-1.55-.27-1.99-.78-.53-.54-.71-1.45-.71-2.64v-5.54h-1.57v-1.41h1.57v-2.44l1.81-.48Z"/></g><polygon class="cls-3" points="413.42 101.06 402.2 95.06 402.2 107.06 413.42 101.06"/><polygon class="cls-3" points="777.54 103.76 766.32 97.76 766.32 109.77 777.54 103.76"/><polygon class="cls-3" points="917.3 251.94 923.31 240.71 911.3 240.71 917.3 251.94"/><polygon class="cls-3" points="693.23 297.86 704.45 303.86 704.45 291.85 693.23 297.86"/><polygon class="cls-3" points="329.84 297.86 341.06 303.86 341.06 291.85 329.84 297.86"/><polygon class="cls-3" points="189.73 496.8 195.74 485.58 183.73 485.58 189.73 496.8"/><polygon class="cls-3" points="413.51 464.51 402.29 458.51 402.29 470.52 413.51 464.51"/><polygon class="cls-3" points="413.64 542.92 402.42 536.92 402.42 548.93 413.64 542.92"/><polygon class="cls-3" points="413.64 621.19 402.42 615.18 402.42 627.19 413.64 621.19"/><polygon class="cls-3" points="777.3 540.59 766.07 534.58 766.07 546.59 777.3 540.59"/><polygon class="cls-3" points="806.81 500.05 807.73 487.35 796.76 492.23 806.81 500.05"/><polygon class="cls-3" points="808.33 586.54 809.25 599.23 798.28 594.35 808.33 586.54"/></g></svg>
