<?xml version="1.0" encoding="UTF-8"?> <svg xmlns="http://www.w3.org/2000/svg" viewBox="0 0 947.72 259.28"> <defs> <style>.cls-1{fill:#fff;}</style> </defs> <g id="Слой_2" data-name="Слой 2"> <g id="Слой_1-2" data-name="Слой 1"> <path class="cls-1" d="M947.72,162.63c-.12-37.46-15.57-65.4-46-83.07C885.41,70.11,866.92,65.91,848.3,66c-18.63-.13-37.12,4.07-53.41,13.52-30.45,17.67-45.89,45.61-46,83.07h0c.12,37.46,15.56,65.41,46,83.08,15.82,9.17,33.77,13.47,52,13.57l1.43,0c.47,0,1,0,1.43,0,18.21-.1,36.16-4.4,52-13.57,30.45-17.67,45.89-45.62,46-83.08Zm-63.7,37c-8.81,9-21,13.7-35.38,13.72H848c-14.34,0-26.57-4.76-35.38-13.72s-13.71-22.16-13.65-37,4.76-27.95,13.66-37,21-13.71,35.37-13.72h.69c14.34,0,26.57,4.76,35.37,13.72s13.72,22.17,13.66,37S892.91,190.58,884,199.64Z"></path> <polygon class="cls-1" points="248.02 68.11 248.02 114.05 317.94 114.05 317.94 257.59 369.12 257.59 369.12 114.05 440.32 114.05 440.32 68.11 248.02 68.11"></polygon> <rect class="cls-1" x="179.85" y="67.72" width="51.65" height="189.87"></rect> <rect class="cls-1" y="67.72" width="51.65" height="189.87"></rect> <polygon class="cls-1" points="129.53 67.72 51.65 257.59 104.89 257.59 179.8 67.72 129.53 67.72"></polygon> <polygon class="cls-1" points="647.61 67.72 596.35 192.68 545.09 67.72 456.84 67.72 456.84 257.59 508.49 257.59 508.49 102.36 569.73 257.59 622.97 257.59 684.21 102.36 684.21 257.59 735.86 257.59 735.86 67.72 647.61 67.72"></polygon> <path class="cls-1" d="M205.65,0C191.37,0,179.8,11.33,179.8,25.29s11.57,25.29,25.85,25.29S231.5,39.26,231.5,25.29,219.92,0,205.65,0"></path> </g> </g> </svg> 